<?xml version="1.0"?>
<svg xmlns="http://www.w3.org/2000/svg" id="Capa_1" enable-background="new 0 0 510 510" height="512px" viewBox="0 0 510 510" width="512px"><g><g><path d="m458.595 348.103c-9.89-10.806-23.37-17.466-37.956-18.754l-22.836-2.02c-57.263-5.08-100.445-52.253-100.445-109.729v-202.6c0-8.284-6.716-15-15-15-36.349 0-153.415 0-196.229 0-8.284 0-15 6.716-15 15v171.667h-2.601c-8.284 0-15 6.716-15 15 0 74.371 2.76 113.888-13.342 166.992-20.691 68.384 38.624 141.341 98.742 141.341h205.59c11.263 0 20.61-9.183 20.61-20.611v-2.855h9.8c22.901 0 41.674-17.997 42.929-40.591 49.071-1.944 74.558-60.889 40.738-97.84zm-357.466-318.103h87.333v156.667h-87.333zm-17.601 186.667h122.534v16.933h-122.534zm0 46.933h49.004l-51.001 50.174c2.176-21.09 1.997-35.475 1.997-50.174zm-17.6 133.829c.011-13.111 3.063-19.395 6.487-32.605l102.895-101.224h30.752c0 13.402-.53 24.944 4.719 42.334l-132.785 132.786c-7.688-13.188-12.085-27.782-12.068-41.291zm31.107 64.677 127.296-127.296c9.62 14.532 21.324 25.168 35.483 33.863l-107.512 111.327c-15.341 0-32.774 2.16-55.267-17.894zm96.972 17.894 92.583-95.868c20.856 11.16 34.652 16.174 43.751 18.427l-71.734 77.441c-21.028 0-44.177 0-64.6 0zm141.122 0h-35.629l35.629-38.464zm52.799-36.467c0 7.168-5.832 13-13 13h-9.8v-28.667h9.8c7.168 0 13 5.832 13 13zm47.674-35.86c-8.787 8.786-17.93 8.327-25.626 8.327-7.801-10.962-20.598-18.133-35.047-18.133h-9.8v-2.855c0-11.365-9.246-20.612-20.611-20.612-5.519 0-23.437-3.139-70.503-32.21-23.804-14.703-37.952-40.227-37.952-68.078v-72.445c0-8.284-6.716-15-15-15h-2.601v-156.667h48.896v187.6c0 72.549 55.399 133.189 127.799 139.612l22.842 2.02c24.422 2.157 34.388 31.655 17.603 48.441z" data-original="#000000" class="active-path" data-old_color="#000000" fill="#202C59"/></g></g> </svg>
