<?xml version="1.0"?>
<svg xmlns="http://www.w3.org/2000/svg" id="Capa_1" enable-background="new 0 0 511.499 511.499" height="512px" viewBox="0 0 511.499 511.499" width="512px"><g><path id="XMLID_828_" d="m496.62 79.367c-2.694-10.755-9.416-19.818-18.927-25.518l-80.007-47.953c-19.634-11.766-45.179-5.368-56.945 14.266-8.856 14.777-7.418 32.901 2.204 45.981l-69.608 116.137c-4.944 8.25-6.51 17.963-4.408 27.348l8.021 35.813c1.09 4.869 3.161 9.438 6.012 13.451l-27.214 45.591-27.214-45.591c2.851-4.013 4.922-8.581 6.012-13.45l8.021-35.814c2.102-9.385.536-19.098-4.408-27.349l-69.605-116.137c9.623-13.08 11.061-31.204 2.204-45.981-11.767-19.632-37.313-26.03-56.945-14.265l-80.007 47.953c-9.511 5.7-16.232 14.763-18.927 25.518-2.694 10.756-1.039 21.917 4.661 31.427 5.699 9.511 14.763 16.232 25.519 18.927 3.368.844 6.775 1.261 10.16 1.261 1.986 0 3.962-.155 5.92-.44l69.599 116.122c4.944 8.251 12.772 14.21 22.04 16.781l35.367 9.81c3.254.903 6.598 1.347 9.934 1.347 1.577 0 3.151-.108 4.714-.306l35.488 59.453-76.789 128.646-13.218-7.922-15.424 25.732 52.215 31.295 15.424-25.732-13.265-7.951 68.526-114.802 68.526 114.802-13.265 7.951 15.424 25.732 52.215-31.295-15.424-25.732-13.218 7.922-76.789-128.646 35.488-59.453c1.563.197 3.137.306 4.714.306 3.336 0 6.681-.445 9.935-1.347l35.365-9.81c9.269-2.571 17.097-8.53 22.041-16.78l69.599-116.123c1.957.285 3.933.44 5.92.44 3.384 0 6.793-.417 10.16-1.261 10.756-2.694 19.819-9.416 25.519-18.926 5.699-9.511 7.354-20.672 4.66-31.428zm-452.64 7.29c.747-2.982 2.611-5.495 5.248-7.076l80.007-47.953c1.849-1.108 3.886-1.635 5.898-1.635 3.916 0 7.737 1.995 9.893 5.59 3.26 5.441 1.49 12.518-3.944 15.783l-80.019 47.96h-.001c-2.635 1.58-5.728 2.04-8.714 1.292-2.982-.747-5.495-2.61-7.075-5.248-1.581-2.636-2.04-5.731-1.293-8.713zm100.489-2.344 21.426 35.747-55.96 33.54-21.425-35.747zm16.328 150.222c-1.819-.504-3.355-1.674-4.326-3.294l-31.113-51.909 55.96-33.54 31.112 51.908c.971 1.621 1.278 3.528.865 5.371l-8.021 35.814c-.598 2.669-2.376 4.081-3.383 4.684-1.007.604-3.092 1.509-5.727.776zm194.232-3.293c-.971 1.619-2.507 2.789-4.327 3.293l-35.365 9.81c-2.638.733-4.721-.173-5.728-.776-1.007-.604-2.785-2.015-3.383-4.685l-8.021-35.814c-.413-1.843-.105-3.75.865-5.37l31.112-51.909 55.96 33.54zm46.536-77.642-55.96-33.54 21.425-35.747 55.96 33.54zm64.661-58.228c-1.58 2.637-4.093 4.5-7.075 5.248-2.985.748-6.078.288-8.714-1.292l-80.02-47.961c-5.435-3.266-7.205-10.343-3.944-15.783 2.155-3.596 5.977-5.591 9.893-5.591 2.013 0 4.05.527 5.898 1.635l80.007 47.953c2.637 1.581 4.501 4.093 5.248 7.076s.288 6.077-1.293 8.715z" data-original="#000000" class="active-path" data-old_color="#000000" fill="#202C59"/></g> </svg>
