<?xml version="1.0"?>
<svg xmlns="http://www.w3.org/2000/svg" xmlns:xlink="http://www.w3.org/1999/xlink" version="1.1" id="Capa_1" x="0px" y="0px" viewBox="0 0 512 512" style="enable-background:new 0 0 512 512;" xml:space="preserve" width="512px" height="512px"><g><g>
	<g>
		<g>
			<path d="M168.58,270.669l-11.098,2.846c-4.014,1.029-6.434,5.117-5.403,9.13c0.868,3.389,3.917,5.64,7.262,5.64     c0.616,0,1.243-0.077,1.867-0.237l11.098-2.846c4.014-1.029,6.434-5.117,5.403-9.13     C176.681,272.06,172.593,269.642,168.58,270.669z" data-original="#000000" class="active-path" data-old_color="#000000" fill="#202C59"/>
			<path d="M202.614,185.235c1.425,2.267,3.863,3.508,6.357,3.508c1.365,0,2.748-0.373,3.988-1.153     c3.507-2.206,4.561-6.838,2.355-10.344l-6.101-9.696c-2.206-3.508-6.84-4.559-10.344-2.355     c-3.507,2.207-4.561,6.838-2.355,10.344L202.614,185.235z" data-original="#000000" class="active-path" data-old_color="#000000" fill="#202C59"/>
			<path d="M293.421,184.36c1.109,0.579,2.297,0.854,3.468,0.854c2.704,0,5.316-1.467,6.655-4.03l5.304-10.154     c1.918-3.672,0.496-8.204-3.176-10.122c-3.67-1.915-8.204-0.497-10.122,3.177l-5.304,10.154     C288.327,177.91,289.75,182.441,293.421,184.36z" data-original="#000000" class="active-path" data-old_color="#000000" fill="#202C59"/>
			<path d="M333.311,279.571c-1.208,3.963,1.024,8.155,4.987,9.363l10.958,3.341c0.73,0.222,1.466,0.328,2.191,0.328     c3.214,0,6.187-2.083,7.173-5.316c1.208-3.963-1.024-8.155-4.987-9.363l-10.958-3.341     C338.71,273.375,334.518,275.608,333.311,279.571z" data-original="#000000" class="active-path" data-old_color="#000000" fill="#202C59"/>
			<path d="M338.143,313.141l-8.888-7.23c-3.215-2.615-7.94-2.128-10.553,1.086c-2.614,3.214-2.129,7.939,1.086,10.554l8.888,7.23     c1.391,1.131,3.066,1.682,4.729,1.682c2.18,0,4.342-0.945,5.824-2.769C341.843,320.48,341.358,315.756,338.143,313.141z" data-original="#000000" class="active-path" data-old_color="#000000" fill="#202C59"/>
			<path d="M248.56,336.479c-4.125-0.372-7.779,2.655-8.16,6.78l-1.054,11.408c-0.382,4.125,2.654,7.779,6.779,8.16     c0.235,0.022,0.468,0.032,0.699,0.032c3.832,0,7.102-2.921,7.461-6.813l1.054-11.408     C255.721,340.514,252.685,336.861,248.56,336.479z" data-original="#000000" class="active-path" data-old_color="#000000" fill="#202C59"/>
			<path d="M503.628,235.422c-2.496-2.537-5.113-5.111-7.779-7.654c-2.998-2.859-7.747-2.748-10.607,0.252     c-2.859,2.999-2.747,7.747,0.252,10.607c2.552,2.433,5.054,4.895,7.438,7.319c5.455,5.543,5.455,14.563,0,20.108     c-15.241,15.489-47.758,45.183-94.31,70.033c-20.571,10.981-41.244,19.611-61.911,25.868     c31.913-24.368,52.544-62.794,52.544-105.954c0-43.075-20.551-81.435-52.357-105.81c54.173,16.484,97.442,45.811,122.612,65.842     c3.24,2.579,7.96,2.042,10.541-1.198c2.581-3.242,2.043-7.962-1.198-10.542c-38.269-30.455-116.809-81.546-212.854-81.546     c-49.688,0-100.05,13.435-149.688,39.933c-48.31,25.788-82.098,56.646-97.938,72.745c-11.165,11.346-11.165,29.807,0,41.154     c9.64,9.797,25.728,24.859,47.624,40.967c1.339,0.984,2.897,1.459,4.439,1.459c2.305,0,4.578-1.058,6.048-3.057     c2.456-3.338,1.739-8.033-1.597-10.488c-21.101-15.522-36.565-29.995-45.822-39.403c-5.455-5.543-5.455-14.563,0-20.108     c15.241-15.489,47.758-45.183,94.31-70.033c20.571-10.981,41.244-19.611,61.911-25.868     C143.374,174.413,122.743,212.84,122.743,256c0,43.05,20.527,81.391,52.3,105.768c-27.488-8.336-54.925-20.766-81.538-37.063     c-3.533-2.163-8.151-1.054-10.316,2.48c-2.164,3.533-1.053,8.152,2.48,10.315c55.292,33.858,114.191,51.754,170.329,51.754     c49.688,0,100.05-13.435,149.688-39.933c48.31-25.789,82.098-56.646,97.938-72.746     C514.791,265.23,514.791,246.769,503.628,235.422z M137.748,255.999c0-65.204,53.048-118.251,118.252-118.251     s118.252,53.048,118.252,118.251S321.205,374.25,256,374.25S137.748,321.203,137.748,255.999z" data-original="#000000" class="active-path" data-old_color="#000000" fill="#202C59"/>
			<path d="M352.991,223.043c0-20.178-16.416-36.594-36.594-36.594c-9.754,0-18.622,3.844-25.19,10.087     c-10.631-6.323-22.668-9.648-35.206-9.648c-38.108,0-69.11,31.002-69.11,69.109s31.002,69.109,69.11,69.109     c37.237,0,67.672-29.606,69.044-66.513C341.061,254.698,352.991,240.242,352.991,223.043z M256,310.105     c-29.834,0-54.107-24.272-54.107-54.106s24.273-54.106,54.107-54.106c9.458,0,18.555,2.407,26.648,7.009     c-1.831,4.353-2.846,9.131-2.846,14.142c0,18,13.067,32.996,30.211,36.026C308.417,287.479,284.804,310.105,256,310.105z      M294.807,223.043c0-11.905,9.685-21.59,21.59-21.59c11.905,0,21.59,9.685,21.59,21.59c0,11.905-9.685,21.59-21.59,21.59     C304.491,244.634,294.807,234.949,294.807,223.043z" data-original="#000000" class="active-path" data-old_color="#000000" fill="#202C59"/>
		</g>
	</g>
</g></g> </svg>
