<?xml version="1.0"?>
<svg xmlns="http://www.w3.org/2000/svg" height="512px" viewBox="-5 0 511 511.99877" width="512px"><g><path d="m337.753906 264.839844c0-4.144532-3.359375-7.5-7.5-7.5s-7.5 3.355468-7.5 7.5c0 4.285156-3.488281 7.773437-7.773437 7.773437-4.285157 0-7.773438-3.488281-7.773438-7.773437 0-4.144532-3.359375-7.5-7.5-7.5s-7.5 3.355468-7.5 7.5c0 12.558594 10.214844 22.773437 22.773438 22.773437 12.558593 0 22.773437-10.21875 22.773437-22.773437zm0 0" data-original="#000000" class="active-path" data-old_color="#000000" fill="#202C59"/><path d="m407.277344 264.839844c0-4.144532-3.359375-7.5-7.5-7.5-4.144532 0-7.5 3.355468-7.5 7.5 0 4.285156-3.488282 7.773437-7.773438 7.773437-4.289062 0-7.773437-3.488281-7.773437-7.773437 0-4.144532-3.359375-7.5-7.5-7.5-4.144531 0-7.5 3.355468-7.5 7.5 0 12.558594 10.214843 22.773437 22.773437 22.773437 12.554688 0 22.773438-10.21875 22.773438-22.773437zm0 0" data-original="#000000" class="active-path" data-old_color="#000000" fill="#202C59"/><path d="m468.476562 437.957031-13.488281-5.746093c-3.8125-1.628907-8.214843.148437-9.839843 3.957031-1.625 3.8125.148437 8.21875 3.960937 9.839843l13.488281 5.75c11.082032 4.722657 18.246094 15.558594 18.246094 27.605469v17.636719h-262.230469v-17.636719c0-12.046875 7.164063-22.882812 18.246094-27.605469l67.527344-28.773437c9.347656-3.984375 15.390625-13.125 15.390625-23.285156v-3.453125c9.714844 3.539062 19.835937 5.332031 29.964844 5.332031 10.117187 0 20.230468-1.789063 29.9375-5.324219v3.445313c0 10.160156 6.039062 19.300781 15.390624 23.285156l21.917969 9.339844c3.808594 1.625 8.214844-.152344 9.839844-3.960938 1.625-3.8125-.148437-8.214843-3.960937-9.839843l-21.917969-9.339844c-3.808594-1.621094-6.269531-5.347656-6.269531-9.484375v-9.96875c27.960937-13.964844 49.710937-35.203125 64.769531-63.289063 9.132812-17.039062 15.652343-36.253906 19.488281-57.332031 2.617188-1.300781 4.652344-3.046875 5.609375-3.949219 21.371094-19.300781 18.128906-79.703125 17.683594-86.605468-2.71875-36.964844-14.589844-56.285157-27.160157-76.742188-1.378906-2.242188-2.769531-4.503906-4.160156-6.816406-.316406-.523438-.410156-1.160156-.253906-1.742188l1.546875-5.78125c1.222656-4.570312.496094-9.503906-2-13.535156-13.023437-21.054688-29.617187-38.992188-49.3125-53.304688-26.835937-19.503906-61.277344-25.644531-92.132813-16.429687-50.929687 15.207031-57.066406 58.050781-57.585937 62.742187-.84375 4.941407-1.011719 9.730469-.605469 14.359376-9.40625 2.828124-17.949218 6.824218-25.503906 11.988281-13.875 9.488281-17.628906 17.566406-18.183594 32.929687 0 .050782-.007812.101563-.007812.15625 0 .046875-.003906.148438-.003906.277344-.046876 1.484375-.066407 3.035156-.0625 4.664062-6.628907-1.617187-12.972657.941407-17.601563 7.175782-3.808594 5.128906-10.449219 18.617187-12.132813 51.320312-.710937 13.832032.28125 27.210938 2.949219 39.773438 2.402344 11.328125 7.269531 21.792968 15.308594 32.933594 1.285156 1.78125 2.945313 3.152343 4.808594 4.070312 1.945312 11.375 4.65625 22.292969 8.152343 32.609375 1.328126 3.921875 5.589844 6.027344 9.507813 4.695313 3.925781-1.328126 6.027344-5.585938 4.699219-9.511719-3.242188-9.5625-5.753906-19.714844-7.5625-30.304688 1.570312-1.585937 2.746094-3.589843 3.367187-5.878906 6.328125-23.371094 13.015625-41.167969 26.789063-57.667969 11.976562-14.347656 27.882812-25.863281 46-33.300781l.675781-.277344c6.605469-2.707031 15.199219-6.242187 23.097656-11.128906 15.648438 8.640625 28.367188 13.453125 29.828125 13.996094 25.980469 9.671875 61.417969 27.613281 82.695313 58.136719 12.621093 18.109374 14.316406 32.328124 14.328125 32.429687.03125.300781.078125.601563.144531.898437.5 2.234376 1.335937 3.929688 2.304687 5.222657-3.558593 19.5-9.550781 37.214843-17.933593 52.847656-15.511719 28.929687-38.917969 49.800781-69.570313 62.023437-17.355468 6.925782-36.472656 6.921876-53.832031 0-28.617187-11.410156-50.957031-30.390624-66.402344-56.410156-2.113281-3.5625-6.714843-4.734375-10.277343-2.621094-3.5625 2.113282-4.734376 6.71875-2.621094 10.277344 14.851562 25.019532 35.421875 44.160156 61.253906 57.074219v9.996094c0 4.140625-2.460938 7.863281-6.269531 9.488281l-67.53125 28.773438c-16.621094 7.082031-27.363281 23.332031-27.363281 41.402343v25.136719c0 4.140625 3.359374 7.5 7.5 7.5h277.230468c4.140625 0 7.5-3.359375 7.5-7.5v-25.136719c-.003906-18.070312-10.746094-34.324219-27.371094-41.40625zm-162.40625-284.882812-.679687.28125c-20.367187 8.359375-38.285156 21.351562-51.820313 37.566406-16.007812 19.175781-23.332031 40.335937-28.601562 59.179687-5.335938-8.066406-8.554688-15.496093-10.28125-23.628906-2.394531-11.285156-3.28125-23.359375-2.636719-35.886718 1.03125-20.082032 4.640625-37.019532 9.191407-43.148438.945312-1.273438 1.429687-1.570312 1.820312-1.570312.15625 0 .300781.050781.453125.101562 1.269531.433594 2.542969.679688 3.804687.777344.480469 9.109375 1.4375 19.535156 3.351563 27.410156.832031 3.429688 3.902344 5.730469 7.28125 5.730469.585937 0 1.179687-.066407 1.773437-.214844 4.027344-.976563 6.496094-5.03125 5.519532-9.054687-3.722656-15.335938-3.382813-43.75-3.378906-44.039063 0-.042969-.003907-.089844-.003907-.132813.386719-11.222656 2.769531-14.691406 11.664063-20.773437 6.007812-4.105469 12.820312-7.339844 20.351562-9.707031 7.765625 21.320312 27.199219 38.507812 46.128906 50.925781-5.039062 2.535156-10.0625 4.597656-13.9375 6.183594zm63.84375 2.6875c-.238281-.089844-24.078124-9.023438-46.476562-24.726563-28.53125-20-41.128906-40.78125-37.445312-61.765625.03125-.183593.058593-.402343.078124-.585937.128907-1.304688 3.164063-27.886719 31.089844-43.464844 10.066406 15.132812 27.367188 23.597656 44.417969 30.960938 18.113281 7.816406 33.699219 15.402343 40.964844 29.070312 1.347656 2.539062 3.941406 3.984375 6.628906 3.984375 1.183594 0 2.390625-.285156 3.511719-.878906 3.660156-1.945313 5.046875-6.484375 3.105468-10.144531-10.328124-19.425782-32.253906-28.894532-48.265624-35.804688-14.5-6.257812-28.132813-12.832031-36.242188-23.261719.589844-.191406 1.160156-.390625 1.765625-.570312 8.054687-2.40625 16.398437-3.585938 24.761719-3.585938 19.0625 0 38.222656 6.117188 54.261718 17.777344 18.113282 13.164063 33.378907 29.671875 45.375 49.0625.328126.527344.425782 1.171875.265626 1.769531l-1.546876 5.78125c-1.199218 4.496094-.507812 9.363282 1.898438 13.359375 1.414062 2.347657 2.824219 4.644531 4.226562 6.925781 12.089844 19.675782 22.53125 36.667969 24.976563 69.921876 1.429687 22.335937-.570313 61.164062-11.722656 73.394531-4.113281-17.054688-22.925781-66.425781-105.628907-97.21875zm0 0" data-original="#000000" class="active-path" data-old_color="#000000" fill="#202C59"/><path d="m223.6875 370.441406c.707031-3.074218.414062-6.21875-.785156-9.070312l9.347656-5.84375c7.144531-4.46875 9.320312-13.917969 4.851562-21.0625l-3.457031-5.527344 25.726563-17.925781c3.398437-2.367188 4.234375-7.042969 1.867187-10.441407-2.367187-3.398437-7.042969-4.230468-10.441406-1.867187l-25.117187 17.5-3.0625-4.898437c-2.167969-3.460938-5.546876-5.871094-9.527344-6.789063-3.976563-.914063-8.074219-.230469-11.535156 1.9375l-9.347657 5.84375c-2.039062-2.328125-4.738281-3.964844-7.8125-4.675781-3.867187-.890625-7.851562-.222656-11.214843 1.882812l-31.460938 19.679688s-.003906 0-.003906.003906c0 0 0 0-.003906 0l-31.453126 19.675781c-.003906 0-.003906 0-.003906 0l-52.945312 33.117188-5.488282-8.777344c-2.195312-3.511719-6.824218-4.578125-10.335937-2.378906-3.511719 2.195312-4.578125 6.824219-2.378906 10.335937l9.464843 15.132813 6.574219 10.511719-15.585937 9.75-1.246094-1.992188c-3.96875-6.351562-12.363281-8.285156-18.714844-4.3125l-12.714844 7.953125c-3.074218 1.921875-5.21875 4.929687-6.03125 8.464844-.8164058 3.535156-.203124 7.175781 1.71875 10.25l25.296876 40.441406c1.921874 3.074219 4.929687 5.21875 8.464843 6.03125 1.019531.234375 2.050781.351563 3.074219.351563 2.515625 0 4.988281-.703126 7.175781-2.070313l12.71875-7.953125c6.347657-3.972656 8.28125-12.367188 4.308594-18.71875l-1.246094-1.988281 15.585938-9.75 16.042969 25.648437c1.421874 2.273438 3.863281 3.523438 6.363281 3.523438 1.359375 0 2.734375-.371094 3.972656-1.144532 3.511719-2.195312 4.578125-6.824218 2.378906-10.335937l-5.488281-8.773437 52.945312-33.117188 62.921876-39.359375c3.367187-2.105469 5.710937-5.394531 6.601562-9.261719zm-183.859375 97.761719-23.789063-38.035156 10.308594-6.449219 4.472656 7.148438 14.847657 23.738281 4.46875 7.148437zm14.582031-27.910156-6.894531-11.023438 15.582031-9.746093 6.894532 11.019531zm38.851563-.832031-21.421875-34.253907s-6.574219-10.511719-6.574219-10.511719l18.75-11.726562 8.167969 13.054688c1.421875 2.273437 3.867187 3.523437 6.367187 3.523437 1.355469 0 2.730469-.367187 3.96875-1.144531 3.511719-2.195313 4.578125-6.824219 2.382813-10.335938l-8.167969-13.054687 15.117187-9.453125 28 44.761718zm59.304687-37.09375-27.996094-44.765626 18.738282-11.722656 8.167968 13.058594c1.421876 2.273438 3.863282 3.523438 6.363282 3.523438 1.359375 0 2.734375-.371094 3.972656-1.144532 3.511719-2.195312 4.578125-6.824218 2.378906-10.335937l-8.164062-13.054688 24.984375-15.628906 3.613281 5.769531 21.757812 34.789063c0 .003906.003907.003906.003907.007812l2.625 4.199219zm47.773438-77.460938 9.167968-5.738281c.03125-.019531.097657-.058594.210938-.035157.113281.027344.15625.09375.175781.128907l14.488281 23.160156c.019532.03125.0625.097656.035157.210937-.023438.113282-.089844.15625-.125.175782l-9.167969 5.734375zm0 0" data-original="#000000" class="active-path" data-old_color="#000000" fill="#202C59"/></g> </svg>
