<svg id="Layer_1" enable-background="new 0 0 256 256" height="512" viewBox="0 0 256 256" width="512" xmlns="http://www.w3.org/2000/svg"><path d="m143.843 110.904c.125-.661 20.212-44.109 20.212-44.109v-10.203l-9.589-20.406s4.196-6.374 11.385 0c0 0 4.196 3.822 8.385 0 0 0 3.03-3.691 8.129-4.329v-.133c.256 0 .482.046.729.062.249-.017.475-.062.732-.062v.133c5.089.638 8.12 4.329 8.12 4.329 4.195 3.822 8.393 0 8.393 0 7.188-6.374 11.377 0 11.377 0l-9.582 20.406v10.203s20.089 43.456 20.213 44.116c1.212 3.886 1.873 8.021 1.873 12.31 0 22.716-18.411 41.133-41.126 41.133-22.714 0-41.132-18.417-41.132-41.133 0-4.289.669-8.424 1.881-12.317z" fill="#e8c205"/><path d="m207.644 123.221c0-4.289-.661-8.424-1.872-12.31-.126-.66-.258-1.329-.443-2.036l-19.77-42.08v-10.203l8.912-18.978c3.202.934 5.868-1.429 5.868-1.429 7.188-6.374 11.377 0 11.377 0l-9.582 20.406v10.203s20.089 43.456 20.213 44.116c1.212 3.886 1.873 8.021 1.873 12.31 0 22.716-18.411 41.133-41.126 41.133-2.844 0-5.61-.287-8.291-.839 18.744-3.831 32.841-20.414 32.841-40.293z" fill="#ffdc00"/><path d="m183.094 166.143c-23.667 0-42.921-19.255-42.921-42.922 0-4.374.66-8.696 1.963-12.845l.01.003c.326-.885 2.584-6.037 20.12-43.977v-9.41l-9.419-20.045c-.265-.563-.218-1.224.125-1.745.083-.126 2.071-3.088 5.723-3.572 2.718-.359 5.528.722 8.343 3.217.515.453 3.149 2.532 5.925.084.622-.709 3.917-4.192 9.181-4.851.149-.029.564-.098.951-.085.382-.011.812.057 1.049.1 5.171.646 8.466 4.13 9.085 4.836 2.776 2.448 5.404.369 5.907-.076 2.824-2.503 5.635-3.586 8.353-3.226 3.651.483 5.64 3.446 5.723 3.572.343.52.39 1.181.125 1.744l-9.412 20.045v9.411c17.521 37.911 19.785 43.081 20.113 43.971l.01-.003c1.303 4.157 1.963 8.48 1.963 12.852-.002 23.667-19.254 42.922-42.917 42.922zm-37.545-54.694c-1.193 3.802-1.798 7.763-1.798 11.772 0 21.694 17.649 39.344 39.343 39.344 21.69 0 39.337-17.649 39.337-39.344 0-4.007-.605-7.971-1.799-11.78-.64-1.647-12.354-27.09-20.122-43.896-.108-.235-.165-.491-.165-.75v-10.203c0-.263.058-.522.17-.76l9.087-19.354c-.55-.518-1.448-1.161-2.617-1.306-1.642-.202-3.478.588-5.467 2.352-1.847 1.687-6.503 3.877-10.776-.016-.063-.058-.123-.121-.178-.187-.021-.025-2.682-3.153-6.96-3.689-.109-.017-.305-.055-.445-.059-.075.006-.103.003-.185-.001-.083.005-.276.043-.294.046-4.379.55-7.031 3.676-7.058 3.708-.052.062-.114.128-.174.183-4.271 3.891-8.934 1.702-10.803 0-1.983-1.759-3.831-2.548-5.482-2.332-1.161.154-2.043.786-2.585 1.297l9.096 19.357c.112.238.17.498.17.761v10.203c0 .259-.057.515-.165.75-7.771 16.812-19.491 42.263-20.13 43.904z" fill="#24202b"/><path d="m208.172 62.754c0 3.287-2.665 5.953-5.953 5.953h-36.981c-3.288 0-5.946-2.666-5.946-5.953 0-3.287 2.658-5.952 5.946-5.952h36.981c3.288 0 5.953 2.665 5.953 5.952z" fill="#ea792d"/><path d="m202.219 70.496h-36.981c-4.266 0-7.735-3.473-7.735-7.742s3.47-7.741 7.735-7.741h36.981c4.269 0 7.742 3.473 7.742 7.741 0 4.269-3.474 7.742-7.742 7.742zm-36.982-11.905c-2.292 0-4.157 1.868-4.157 4.163 0 2.296 1.865 4.164 4.157 4.164h36.981c2.296 0 4.164-1.868 4.164-4.164 0-2.295-1.868-4.163-4.164-4.163z" fill="#24202b"/><path d="m239.008 183.151c-.343-1.096-.886-2.051-1.522-2.93 1.018-2.354 1.212-5.066.302-7.678-1.918-5.524-7.965-8.455-13.497-6.52l-43.186 15.044-15.23.428c-4.173-.023-9.582.008-15.177.008l-31.013-8.96c-5.215-2.883-.319-7.926-.319-7.926 9.969-8.611 14.041-24.526 14.041-24.526.435-1.312.707-2.456.87-3.466.994-3.808-.349-7.996-3.722-10.444-4.407-3.193-10.568-2.223-13.762 2.184l-6.676 9.201c-.318.435-1.181 1.398-2.409 2.704l-.015.016c-.692.746-1.507 1.601-2.409 2.533-3.124 3.016-9.279 8.067-18.052 11.609-14.194 3.117-26.227 18.115-26.227 18.115h-11.852v51.732h11.851 27.61s64.748-.784 66.07-1.049l18.735-2.059c.162-.023.303-.077.459-.109.838-.046 1.685-.17 2.524-.435l6.148-1.958 38.359-12.209c4.024-1.273 6.713-4.779 7.188-8.703l4.017-1.29c5.588-1.771 8.665-7.732 6.894-13.312zm0 0c-.343-1.096-.886-2.051-1.522-2.93 1.018-2.354 1.212-5.066.302-7.678-1.918-5.524-7.965-8.455-13.497-6.52l-43.186 15.044-15.23.428c-4.173-.023-9.582.008-15.177.008l-31.013-8.96c-5.215-2.883-.319-7.926-.319-7.926 9.969-8.611 14.041-24.526 14.041-24.526.435-1.312.707-2.456.87-3.466.994-3.808-.349-7.996-3.722-10.444-4.407-3.193-10.568-2.223-13.762 2.184l-6.676 9.201c-.318.435-1.181 1.398-2.409 2.704l-.015.016c-.692.746-1.507 1.601-2.409 2.533-3.124 3.016-9.279 8.067-18.052 11.609-14.194 3.117-26.227 18.115-26.227 18.115h-11.852v51.732h11.851 27.61s64.748-.784 66.07-1.049l18.735-2.059c.162-.023.303-.077.459-.109.838-.046 1.685-.17 2.524-.435l6.148-1.958 38.359-12.209c4.024-1.273 6.713-4.779 7.188-8.703l4.017-1.29c5.588-1.771 8.665-7.732 6.894-13.312zm-7.749 2.899c.724-.248 1.392-.575 2.023-.955.1-.062.178-.141.264-.195.528-.349 1.042-.714 1.484-1.142.038-.038.061-.078.102-.108 1.002-.987 1.802-2.153 2.355-3.428-1.138 2.634-3.298 4.81-6.228 5.828z" fill="#f9b28a"/><path d="m123.997 126.182c3.371 2.448 4.715 6.637 3.72 10.444-.164 1.01-.443 2.153-.871 3.466 0 0-4.07 15.915-14.04 24.526 0 0-4.896 5.043.318 7.926l31.068 8.642c2.23 0 4.328.296 6.412.287l-30.92-8.929c-5.215-2.883-.319-7.926-.319-7.926 9.969-8.611 14.041-24.526 14.041-24.526.435-1.312.707-2.456.87-3.466.994-3.808-.349-7.996-3.722-10.444-2.744-1.989-6.171-2.362-9.138-1.289.902.31 1.773.706 2.581 1.289z" fill="#f19d69"/><path d="m239.008 183.151c-.343-1.096-.886-2.051-1.522-2.93 1.018-2.354 1.212-5.066.302-7.678-1.903-5.471-7.841-8.377-13.318-6.559 3.037.979 6.427 4.212 7.568 7.476 1.678 4.804.475 10.444.824 11.541.023.085.023.162.054.264-.528.296-1.058.583-1.656.784l-44.714 15.59c-1.632.326-2.828.481-4.242.552h-14.105c-.318 0-.622.023-.939.054 2.649.241 4.717 2.448 4.717 5.152 0 1.904-1.057 3.513-2.58 4.414l-14.71 1.617c-1.322.263-66.07 1.048-66.07 1.048h-27.61-11.854v9.8h11.851 27.61s64.748-.784 66.07-1.049l14.158-1.554 4.577-.506c.162-.023.303-.077.459-.109.838-.046 1.685-.17 2.524-.435l6.148-1.958 38.359-12.209c4.024-1.273 6.713-4.779 7.188-8.703l4.017-1.29c5.588-1.771 8.665-7.732 6.894-13.312z" fill="#f19d69"/><path d="m61.004 226.065h-11.851c-.988 0-1.789-.801-1.789-1.789v-51.732c0-.988.801-1.789 1.789-1.789h11.012c2.578-3.028 13.535-15.112 26.533-18.04 8.655-3.521 14.577-8.512 17.344-11.183.848-.879 1.655-1.725 2.34-2.462 1.704-1.812 2.169-2.393 2.292-2.56l6.671-9.196c3.765-5.192 11.058-6.351 16.26-2.582 3.872 2.811 5.603 7.615 4.425 12.261-.191 1.152-.488 2.332-.906 3.603-.331 1.268-4.508 16.612-14.518 25.314-.496.539-1.707 2.166-1.515 3.417.033.218.131.862 1.297 1.557l30.563 8.83 14.924-.008 14.903-.419 42.924-14.953c3.123-1.091 6.485-.901 9.468.539 2.982 1.441 5.223 3.957 6.309 7.083.906 2.601.904 5.419.012 8.037.544.869.947 1.733 1.226 2.622.999 3.153.714 6.506-.805 9.441-1.521 2.94-4.098 5.111-7.255 6.112l-2.979.956c-.931 4.239-4.059 7.718-8.227 9.037l-44.504 14.166c-.866.273-1.779.438-2.793.505-.188.05-.328.083-.478.104l-18.796 2.067v-.003c-3.217.275-47.164.833-66.244 1.065zm93.618-2.829h.01zm-103.68-.749h37.672c25.346-.307 63.717-.833 65.803-1.029.023-.003.047-.007.071-.009l18.735-2.06c.09-.036.189-.062.293-.083.087-.018.175-.029.264-.034.781-.043 1.463-.159 2.084-.354l44.502-14.166c3.211-1.016 5.547-3.847 5.954-7.213.084-.693.564-1.275 1.229-1.488l4.017-1.29c2.251-.714 4.083-2.257 5.164-4.347 1.052-2.033 1.272-4.348.627-6.54-1.26 1.562-2.878 2.784-4.755 3.575-.251.107-.503.204-.758.291-.002.001-.005.001-.007.002-.936.321-1.949-.176-2.271-1.109-.321-.933.173-1.95 1.104-2.273.208-.072.412-.152.612-.238.355-.155.711-.34 1.074-.56.04-.043.132-.112.226-.172.363-.239.801-.542 1.152-.872.049-.056.107-.118.179-.183.822-.82 1.471-1.77 1.929-2.824.884-2.047.975-4.312.254-6.379-.772-2.225-2.365-4.013-4.485-5.037-2.119-1.023-4.51-1.159-6.731-.383l-43.188 15.045c-.174.061-.355.094-.539.099l-15.23.428-15.227.009c-.168 0-.335-.024-.496-.07l-31.013-8.96c-.128-.037-.252-.088-.369-.153-2.374-1.312-3.088-3.042-3.27-4.262-.485-3.26 2.222-6.157 2.532-6.476.037-.038.075-.074.114-.108 9.435-8.15 13.438-23.462 13.477-23.616.011-.04.022-.08.035-.119.372-1.124.642-2.197.802-3.188.01-.056.021-.112.035-.167.846-3.236-.349-6.59-3.041-8.544-3.603-2.611-8.656-1.81-11.262 1.786l-6.676 9.202c-.137.187-.541.738-2.554 2.879-.706.761-1.53 1.625-2.441 2.567-3.012 2.908-9.378 8.274-18.668 12.024-.093.038-.188.067-.286.089-13.422 2.947-25.1 17.342-25.216 17.487-.34.423-.853.669-1.396.669h-10.061z" fill="#24202b"/><path d="m182.303 203.98h-14.649c-.988 0-1.789-.801-1.789-1.789s.801-1.789 1.789-1.789h14.649c1.741 0 3.406-.396 3.723-.476l44.645-15.566c.931-.325 1.952.168 2.278 1.101.325.933-.168 1.953-1.101 2.278l-44.714 15.59c-.04.014-.08.026-.121.037-.093.026-2.294.614-4.71.614z" fill="#24202b"/><path d="m167.317 214.331c-.919 0-1.7-.703-1.78-1.635-.085-.984.644-1.851 1.628-1.936l13.95-1.205c2.373-.44 5.624-1.52 5.657-1.531l40.821-11.987c.946-.28 1.942.264 2.221 1.212.278.948-.265 1.942-1.213 2.22l-40.76 11.968c-.084.029-3.541 1.177-6.17 1.652-.055.01-.109.018-.164.022l-14.034 1.212c-.052.006-.104.008-.156.008z" fill="#24202b"/><path d="m16.492 172.544h32.577v51.732h-32.577z" fill="#14a2ff"/><path d="m16.492 211.33h32.577v12.946h-32.577z" fill="#098dd6"/><g fill="#24202b"><path d="m49.068 226.065h-32.576c-.988 0-1.789-.801-1.789-1.789v-51.732c0-.988.801-1.789 1.789-1.789h32.577c.988 0 1.789.801 1.789 1.789v51.732c-.001.988-.802 1.789-1.79 1.789zm-30.787-3.578h28.999v-48.154h-28.999z"/><path d="m179.444 155.139c-.044 0-.087-.001-.131-.005-8.633-.624-16.506-4.574-22.167-11.122-5.663-6.548-8.435-14.908-7.806-23.54 1.067-14.764 11.97-26.916 26.513-29.55.979-.176 1.903.47 2.08 1.441.176.972-.47 1.903-1.441 2.079-12.936 2.343-22.633 13.154-23.583 26.289-.56 7.68 1.906 15.116 6.943 20.94s12.04 9.338 19.719 9.894c.985.071 1.727.928 1.655 1.913-.068.942-.853 1.661-1.782 1.661z"/><path d="m175.021 98.295 8.851-6.019-9.637-4.657z"/><path d="m190.287 154.655c-.849 0-1.602-.606-1.759-1.471-.176-.972.47-1.903 1.441-2.079 12.934-2.343 22.635-13.153 23.591-26.289.556-7.679-1.912-15.115-6.95-20.939-5.038-5.825-12.041-9.338-19.72-9.894-.985-.071-1.727-.928-1.655-1.913.072-.987.939-1.724 1.913-1.655 8.632.624 16.505 4.574 22.168 11.121s8.438 14.907 7.812 23.54c-1.075 14.765-11.98 26.916-26.521 29.55-.107.019-.214.029-.32.029z"/><path d="m191.44 147.253-8.85 6.018 9.637 4.658z"/></g><path d="m176.645 121.605c0 .831-.126 1.6-.366 2.315-.233.714-.676 1.32-1.306 1.81-.637.497-1.507.878-2.604 1.15-1.104.272-2.494.404-4.18.404-3.404 0-5.681-.521-6.831-1.577-1.144-1.05-1.718-2.417-1.718-4.103v-9.069c0-1.687.574-3.062 1.718-4.111 1.15-1.05 3.427-1.578 6.831-1.578 1.686 0 3.076.141 4.18.413 1.097.271 1.967.652 2.604 1.142.63.497 1.072 1.096 1.306 1.818.24.715.366 1.484.366 2.316zm-10.08-1.477c0 .218.094.42.287.591.194.179.639.264 1.338.264.668 0 1.095-.085 1.289-.264.194-.171.288-.373.288-.591v-6.115c0-.194-.094-.373-.288-.552-.194-.172-.621-.257-1.289-.257-.699 0-1.144.085-1.338.257-.193.179-.287.358-.287.552zm7.88 19.622 7.639-30.944c.125-.566.336-1.003.623-1.29.287-.28.73-.428 1.336-.428h5.012c.606 0 1.034.147 1.29.428.257.287.319.724.187 1.29l-7.639 30.944c-.124.567-.334 1.003-.614 1.29-.287.28-.737.428-1.336.428h-5.021c-.598 0-1.033-.148-1.282-.428-.257-.287-.319-.723-.195-1.29zm30.751-3.676c0 .824-.125 1.594-.359 2.316-.239.715-.674 1.32-1.312 1.81-.636.498-1.506.879-2.603 1.15-1.104.265-2.495.404-4.182.404-3.402 0-5.68-.527-6.822-1.577-1.15-1.05-1.726-2.417-1.726-4.104v-9.077c0-1.686.575-3.053 1.726-4.103 1.142-1.049 3.42-1.577 6.822-1.577 1.687 0 3.077.14 4.182.404 1.097.271 1.967.652 2.603 1.149.639.49 1.073 1.097 1.312 1.811.234.715.359 1.492.359 2.315zm-10.079-1.484c0 .227.101.42.287.599.193.171.637.265 1.336.265.668 0 1.096-.094 1.291-.265.193-.179.287-.372.287-.599v-6.108c0-.193-.094-.372-.287-.551-.195-.171-.623-.265-1.291-.265-.699 0-1.143.094-1.336.265-.186.179-.287.357-.287.551z" fill="#1d966a"/><path d="m196.74 143.544c-3.904 0-6.532-.67-8.032-2.049-1.528-1.394-2.305-3.219-2.305-5.421v-3.082l-1.773 7.187c-.186.851-.55 1.577-1.071 2.111-.469.458-1.272.967-2.616.967h-5.021c-1.41 0-2.203-.56-2.619-1.028-.449-.502-.922-1.41-.605-2.86l2.94-11.915c-.765.5-1.699.882-2.838 1.165-1.245.307-2.752.457-4.609.457-3.965 0-6.52-.651-8.041-2.049-1.524-1.399-2.297-3.222-2.297-5.42v-9.069c0-2.204.772-4.03 2.297-5.429 1.513-1.38 4.142-2.049 8.041-2.049 1.808 0 3.358.157 4.608.465 1.337.331 2.435.822 3.265 1.46.941.743 1.581 1.642 1.918 2.687.299.887.453 1.858.453 2.866v3.589l1.912-7.748c.19-.863.562-1.593 1.096-2.126.651-.637 1.521-.952 2.601-.952h5.012c1.396 0 2.19.55 2.611 1.011.389.435.967 1.37.607 2.904l-2.93 11.865c1.561-1.042 3.994-1.551 7.396-1.551 1.795 0 3.343.153 4.599.454 1.378.341 2.448.824 3.287 1.48.905.695 1.552 1.59 1.907 2.651.301.918.452 1.885.452 2.884v9.077c0 .989-.15 1.955-.446 2.868-.361 1.078-1.008 1.974-1.927 2.678-.823.645-1.895 1.128-3.261 1.467-1.268.302-2.816.455-4.611.455zm0-20.438c-3.979 0-5.25.773-5.612 1.106-.783.715-1.146 1.599-1.146 2.785v9.077c0 1.187.363 2.071 1.143 2.782.366.336 1.637 1.109 5.616 1.109 1.515 0 2.781-.12 3.765-.355.841-.208 1.489-.485 1.916-.819.367-.282.591-.586.72-.969.178-.549.267-1.126.267-1.749v-9.077c0-.62-.091-1.211-.271-1.758-.125-.373-.349-.678-.701-.949-.44-.344-1.09-.621-1.943-.832-.973-.231-2.239-.351-3.754-.351zm-20.434 16.573h4.637c.045 0 .082-.001.113-.004.024-.064.059-.165.089-.307l7.526-30.491h-4.628c-.048 0-.088.001-.12.004-.025.064-.06.165-.092.31zm-8.116-31.043c-3.979 0-5.259.776-5.625 1.11-.773.71-1.135 1.597-1.135 2.79v9.069c0 1.187.361 2.071 1.139 2.785.45.413 1.778 1.106 5.621 1.106 1.543 0 2.805-.119 3.751-.352.853-.211 1.502-.488 1.932-.823.355-.277.586-.589.706-.957.188-.561.277-1.132.277-1.759v-9.069c0-.628-.089-1.2-.273-1.747-.125-.388-.352-.695-.718-.984-.412-.316-1.084-.601-1.925-.809-.968-.239-2.231-.36-3.75-.36zm28.55 28.606c-1.186 0-1.963-.22-2.521-.713-.746-.712-.892-1.443-.892-1.939v-6.108c0-.474.146-1.179.839-1.843.61-.542 1.388-.762 2.573-.762.713 0 1.744.073 2.469.708.749.691.898 1.41.898 1.897v6.108c0 .509-.149 1.254-.862 1.913-.76.666-1.791.739-2.504.739zm-28.55-14.471c-.864 0-1.844-.087-2.549-.736-.549-.484-.865-1.17-.865-1.908v-6.115c0-.488.149-1.207.862-1.866.731-.648 1.698-.732 2.552-.732.78 0 1.767.08 2.475.706.741.681.892 1.402.892 1.892v6.115c0 .739-.318 1.426-.896 1.934-.68.627-1.68.71-2.471.71z" fill="#24202b"/></svg>