<?xml version="1.0"?>
<svg xmlns="http://www.w3.org/2000/svg" id="Capa_1" enable-background="new 0 0 512 512" height="512px" viewBox="0 0 512 512" width="512px"><g><g><path d="m481.5 212.994h-91.976c10.087-11.928 19.609-21.99 28.876-30.522 16.62-15.302 33.766-30.308 51.04-44.688 9.812 8.933 25.638 8.53 35.09-.92 9.808-9.806 9.785-26.375.001-36.062l-93.338-93.339c-9.943-9.942-26.12-9.942-36.063 0-9.635 9.636-9.932 25.129-.891 35.125-14.547 17.71-29.761 35.25-45.308 52.208-5.16 5.628-10.633 11.097-16.542 16.527-.775-5.279-1.872-10.543-3.327-15.759-1.617-5.784-6.22-10.384-12.016-12.004-43.937-12.266-91.405-.042-123.888 31.895-2.954 2.904-2.994 7.653-.09 10.606 2.904 2.954 7.654 2.993 10.605.09 28.665-28.185 70.56-38.97 109.336-28.145.765.213 1.395.84 1.604 1.591 11.422 40.852-1.172 84.804-32.359 113.396h-69.592l54.935-51.509c3.021-2.833 3.175-7.58.341-10.601-2.831-3.021-7.577-3.175-10.601-.341l-58.573 54.919c-.211-33.389-13.394-65.244-37.374-89.232-32.544-32.533-80.314-45.049-124.666-32.67-5.796 1.616-10.401 6.216-12.021 12.008-11.492 41.181-1.519 85.287 25.988 117.426h-.191c-16.817 0-30.5 13.682-30.5 30.5 0 14.05 9.552 25.904 22.5 29.428v17.572c0 86.181 60.048 158.593 140.5 177.614v6.386c0 20.678 16.822 37.5 37.5 37.5h111c20.678 0 37.5-16.822 37.5-37.5v-6.348c39.574-9.281 75.096-31.6 101.049-64.312 2.574-3.245 2.03-7.962-1.215-10.537-3.245-2.576-7.963-2.031-10.537 1.214-24.944 31.442-59.517 52.431-97.908 60.164-.235.035-.466.08-.693.136-10.65 2.098-21.589 3.183-32.696 3.183h-102c-92.359 0-167.5-75.14-167.5-167.5v-16.5h437v16.5c0 26.767-6.122 52.34-18.196 76.007-1.883 3.689-.417 8.207 3.272 10.089 3.625 1.849 8.183.463 10.089-3.272 13.161-25.798 19.835-53.665 19.835-82.824v-17.572c12.948-3.524 22.5-15.378 22.5-29.428 0-16.817-13.683-30.499-30.5-30.499zm-303.5 258c8.813 1.312 17.827 2 27 2h102c9.124 0 18.141-.68 27-1.988v3.488c0 12.407-10.094 22.5-22.5 22.5h-111c-12.406 0-22.5-10.093-22.5-22.5zm207.736-452.924c4.095-4.094 10.757-4.094 14.85 0l93.339 93.339c4.041 4.001 4.039 10.811-.001 14.849-4.042 4.04-10.847 4.042-14.848 0l-93.339-93.338c-4.094-4.095-4.093-10.757-.001-14.85zm-71.994 112.082c9.696-8.293 18.316-16.568 26.247-25.219 15.389-16.787 30.46-34.135 44.889-51.66l73.883 73.882c-17.099 14.264-34.065 29.131-50.52 44.281-12.16 11.196-24.667 24.817-38.16 41.558h-87.004c19.88-23.231 30.595-52.717 30.665-82.842zm-294.59-30.549c.215-.768.829-1.379 1.604-1.596 39.146-10.928 81.311.119 110.028 28.829 22.929 22.937 34.682 54.025 32.795 86.158h-20.544l-66.605-62.451c-3.023-2.834-7.77-2.68-10.602.341-2.833 3.021-2.68 7.768.342 10.601l54.936 51.509h-69.593c-31.185-28.573-43.769-72.604-32.361-113.391zm462.348 159.391h-451c-8.547 0-15.5-6.953-15.5-15.5s6.953-15.5 15.5-15.5h451c8.547 0 15.5 6.953 15.5 15.5s-6.953 15.5-15.5 15.5zm-403.109 46.617c-.488-4.114-4.223-7.052-8.331-6.564-4.113.488-7.053 4.218-6.565 8.331 8.491 71.613 69.325 125.616 141.505 125.616 4.143 0 7.5-3.358 7.5-7.5s-3.357-7.5-7.5-7.5c-64.582 0-119.013-48.314-126.609-112.383z" data-original="#000000" class="active-path" data-old_color="#000000" fill="#202C59"/></g></g> </svg>
