<?xml version="1.0"?>
<svg xmlns="http://www.w3.org/2000/svg" id="Capa_1" enable-background="new 0 0 510.458 510.458" height="512px" viewBox="0 0 510.458 510.458" width="512px"><g><g><g><path d="m493.204 339.704c-.884-47.14-12.823-94.18-34.526-136.035l-6.23-12.016c-27.834-53.677-34.719-115.449-19.386-173.938l2.649-10.109-29.02-7.606-2.649 10.108c-17.221 65.69-9.488 135.068 21.772 195.355l6.23 12.016c19.59 37.779 30.366 80.238 31.165 122.787.798 42.549-8.379 85.383-26.538 123.87l-7.701 16.321h-158.741v-73.053l75.529-51.657-16.936-24.762-73.594 50.332-73.594-50.332-16.934 24.763 75.529 51.657v73.053h-158.741l-7.701-16.321c-18.159-38.487-27.336-81.321-26.538-123.87.799-42.549 11.575-85.008 31.165-122.787l6.23-12.016c31.261-60.287 38.993-129.665 21.772-195.354l-2.649-10.11-29.02 7.605 2.649 10.11c15.333 58.488 8.448 120.261-19.386 173.938l-6.23 12.016c-21.703 41.855-33.643 88.896-34.526 136.035-.885 47.14 9.282 94.594 29.401 137.233l15.814 33.521h385.518l15.814-33.521c20.12-42.639 30.287-90.093 29.403-137.233z" data-original="#000000" class="active-path" data-old_color="#000000" fill="#202C59"/></g><g><path d="m255.229 304.876c64.508 0 116.988-52.48 116.988-116.988s-52.48-116.989-116.988-116.989-116.988 52.48-116.988 116.988 52.48 116.989 116.988 116.989zm0-203.977c47.966 0 86.988 39.022 86.988 86.988s-39.022 86.988-86.988 86.988-86.988-39.022-86.988-86.988 39.022-86.988 86.988-86.988z" data-original="#000000" class="active-path" data-old_color="#000000" fill="#202C59"/></g><g><path d="m204.299 172.888h101.859v30h-101.859z" data-original="#000000" class="active-path" data-old_color="#000000" fill="#202C59"/></g></g></g> </svg>
