<?xml version="1.0"?>
<svg xmlns="http://www.w3.org/2000/svg" id="Layer_1" enable-background="new 0 0 256 256" height="512px" viewBox="0 0 256 256" width="512px" class=""><g><g><path d="m70.563 180.34c-.795 0-1.577-.378-2.062-1.083-1.981-2.881-3.155-6.19-3.436-9.655-8.296-2.527-14.128-10.254-14.128-19.083 0-4.881 1.795-9.56 4.996-13.186-3.201-3.626-4.996-8.305-4.996-13.186s1.795-9.56 4.996-13.186c-3.201-3.626-4.996-8.305-4.996-13.186s1.795-9.56 4.996-13.186c-3.201-3.626-4.996-8.305-4.996-13.186 0-3.068.679-6.012 2.017-8.75.606-1.24 2.103-1.755 3.344-1.148 1.24.606 1.755 2.103 1.148 3.344-1.001 2.049-1.509 4.254-1.509 6.555 0 4.328 1.887 8.445 5.178 11.297.548.475.862 1.164.862 1.889s-.314 1.415-.863 1.889c-3.29 2.851-5.177 6.968-5.177 11.296s1.887 8.446 5.177 11.296c.549.475.863 1.165.863 1.89s-.314 1.415-.862 1.889c-3.291 2.852-5.178 6.969-5.178 11.297s1.887 8.445 5.178 11.297c.548.475.862 1.164.862 1.889s-.314 1.415-.863 1.889c-3.29 2.851-5.177 6.969-5.177 11.297 0 7.129 5.072 13.299 12.062 14.669 1.196.234 2.05 1.299 2.018 2.519-.002.09-.008.178-.015.267-.002 3.037.904 5.959 2.618 8.451.782 1.138.495 2.694-.643 3.477-.431.296-.925.438-1.414.438z" fill="#ebe7f2" data-original="#EBE7F2" class="active-path" style="fill:#202C59" data-old_color="#ebe7f2"/><path d="m183.437 180.34c-.488 0-.982-.143-1.415-.44-1.138-.782-1.425-2.339-.643-3.477 1.714-2.492 2.62-5.414 2.62-8.45-.009-.089-.015-.177-.017-.267-.032-1.22.821-2.284 2.018-2.519 6.989-1.37 12.062-7.54 12.062-14.669 0-4.328-1.887-8.446-5.177-11.297-.549-.475-.863-1.164-.863-1.889s.314-1.415.862-1.889c3.291-2.852 5.178-6.969 5.178-11.297s-1.887-8.445-5.178-11.297c-.548-.475-.862-1.164-.862-1.889s.314-1.415.863-1.89c3.29-2.851 5.177-6.968 5.177-11.296s-1.887-8.445-5.177-11.296c-.549-.475-.863-1.164-.863-1.889s.314-1.415.862-1.889c3.291-2.852 5.178-6.969 5.178-11.297 0-2.301-.508-4.506-1.509-6.555-.606-1.241-.092-2.738 1.148-3.344 1.242-.607 2.738-.092 3.344 1.148 1.338 2.739 2.017 5.683 2.017 8.75 0 4.881-1.795 9.56-4.996 13.186 3.201 3.626 4.996 8.304 4.996 13.186s-1.795 9.56-4.996 13.186c3.201 3.626 4.996 8.305 4.996 13.186s-1.795 9.56-4.996 13.186c3.201 3.626 4.996 8.305 4.996 13.186 0 8.83-5.832 16.556-14.128 19.083-.28 3.465-1.454 6.774-3.436 9.655-.484.706-1.267 1.084-2.061 1.084z" fill="#ebe7f2" data-original="#EBE7F2" class="active-path" style="fill:#202C59" data-old_color="#ebe7f2"/><g fill="#65c1d6"><path d="m127 175.788c-13.063 0-23.69-10.627-23.69-23.69 0-12.081 19.371-42.951 21.58-46.431.458-.722 1.255-1.16 2.11-1.16s1.652.438 2.11 1.16c2.209 3.48 21.58 34.351 21.58 46.431 0 13.063-10.627 23.69-23.69 23.69zm0-64.043c-6.676 10.942-18.69 32.302-18.69 40.354 0 10.306 8.385 18.69 18.69 18.69s18.69-8.384 18.69-18.69c0-8.053-12.014-29.412-18.69-40.354z" data-original="#65C1D6" class="" data-old_color="#65C1D6" style="fill:#202C59"/><path d="m200.604 73.788c-.511 0-1.025-.155-1.469-.479-1.116-.813-1.363-2.376-.551-3.493l8.409-11.556h-6.096c-.94 0-1.802-.528-2.228-1.366-.427-.838-.348-1.845.206-2.605l11.299-15.527c.813-1.117 2.378-1.363 3.492-.55 1.116.813 1.363 2.376.551 3.493l-8.409 11.556h6.096c.94 0 1.802.528 2.228 1.366.427.838.348 1.845-.206 2.605l-11.299 15.527c-.488.672-1.25 1.029-2.023 1.029z" data-original="#65C1D6" class="" data-old_color="#65C1D6" style="fill:#202C59"/><path d="m218.49 67.393c-.511 0-1.025-.155-1.469-.479-1.117-.813-1.363-2.376-.551-3.493l8.41-11.556h-6.097c-.94 0-1.802-.528-2.228-1.366-.427-.838-.348-1.845.206-2.605l11.3-15.527c.812-1.116 2.377-1.363 3.492-.55 1.117.813 1.363 2.376.551 3.493l-8.41 11.556h6.097c.94 0 1.802.528 2.228 1.366.427.838.348 1.845-.206 2.605l-11.3 15.527c-.489.672-1.25 1.029-2.023 1.029z" data-original="#65C1D6" class="" data-old_color="#65C1D6" style="fill:#202C59"/><path d="m53.396 73.788c-.772 0-1.534-.356-2.023-1.029l-11.3-15.527c-.554-.761-.633-1.767-.206-2.605.426-.838 1.287-1.366 2.228-1.366h6.096l-8.409-11.556c-.813-1.117-.565-2.68.551-3.493 1.114-.813 2.68-.566 3.492.55l11.298 15.528c.554.761.633 1.767.206 2.605-.426.838-1.287 1.366-2.228 1.366h-6.096l8.409 11.556c.813 1.117.565 2.68-.551 3.493-.442.322-.958.478-1.467.478z" data-original="#65C1D6" class="" data-old_color="#65C1D6" style="fill:#202C59"/><path d="m35.51 67.393c-.772 0-1.534-.356-2.023-1.029l-11.3-15.527c-.554-.761-.633-1.767-.206-2.605.426-.838 1.287-1.366 2.228-1.366h6.097l-8.41-11.556c-.813-1.117-.566-2.68.551-3.493 1.114-.813 2.679-.566 3.492.55l11.3 15.527c.554.761.633 1.767.206 2.605-.426.838-1.287 1.366-2.228 1.366h-6.097l8.41 11.556c.813 1.117.566 2.68-.551 3.493-.444.323-.959.479-1.469.479z" data-original="#65C1D6" class="" data-old_color="#65C1D6" style="fill:#202C59"/></g><g fill="#846f75"><path d="m208.098 86.379c3.201-3.626 4.996-8.305 4.996-13.186 0-1.381-1.119-2.5-2.5-2.5s-2.5 1.119-2.5 2.5c0 4.328-1.887 8.445-5.178 11.297-.548.475-.862 1.164-.862 1.889s.314 1.415.862 1.889c3.291 2.852 5.178 6.969 5.178 11.297s-1.887 8.445-5.178 11.297c-.548.475-.862 1.164-.862 1.889s.314 1.415.863 1.889c3.29 2.851 5.177 6.968 5.177 11.296s-1.887 8.446-5.177 11.297c-.549.475-.863 1.164-.863 1.889s.314 1.415.862 1.889c3.291 2.852 5.178 6.969 5.178 11.297 0 7.13-5.072 13.299-12.061 14.669-1.189.233-2.04 1.285-2.02 2.497.002.097.008.192.017.29 0 6.122-3.674 11.563-9.358 13.861-.945.382-1.563 1.299-1.563 2.318v31h-8.065v-31c0-1.019-.618-1.936-1.563-2.318-5.685-2.298-9.358-7.739-9.358-13.861 0-7.13 5.072-13.299 12.061-14.669 1.189-.233 2.04-1.285 2.02-2.497-.002-.101-.008-.2-.018-.29 0-4.328 1.888-8.445 5.178-11.296.549-.475.863-1.165.863-1.89s-.315-1.415-.863-1.89c-3.29-2.851-5.178-6.968-5.178-11.296s1.888-8.445 5.178-11.296c.548-.475.863-1.165.863-1.89s-.314-1.415-.863-1.89c-3.29-2.851-5.178-6.968-5.178-11.296s1.888-8.445 5.178-11.296c.549-.475.863-1.165.863-1.89s-.315-1.415-.863-1.89c-.547-.473-1.063-.99-1.534-1.536-.476-.55-1.166-.866-1.893-.866s-1.417.316-1.892.866c-2.853 3.302-6.976 5.195-11.313 5.195-4.353 0-8.485-1.903-11.338-5.222-.949-1.105-2.842-1.105-3.791 0-2.853 3.319-6.985 5.222-11.338 5.222s-8.485-1.903-11.338-5.222c-.949-1.105-2.842-1.105-3.791 0-2.853 3.319-6.985 5.222-11.338 5.222-4.354 0-8.486-1.903-11.339-5.222-.949-1.105-2.842-1.105-3.791 0-2.853 3.319-6.985 5.222-11.338 5.222s-8.485-1.903-11.338-5.222c-.949-1.105-2.841-1.105-3.792 0-.474.552-.998 1.078-1.559 1.563-.549.475-.864 1.164-.864 1.89 0 .725.314 1.415.863 1.89 3.29 2.851 5.178 6.968 5.178 11.296s-1.888 8.446-5.178 11.296c-.549.475-.863 1.165-.863 1.89s.315 1.415.863 1.89c3.29 2.851 5.178 6.968 5.178 11.296 0 4.329-1.888 8.446-5.178 11.296-.548.475-.863 1.165-.863 1.89s.314 1.415.863 1.89c3.29 2.851 5.178 6.968 5.176 11.298-.007.088-.013.177-.015.266-.032 1.22.821 2.284 2.019 2.519 6.988 1.37 12.061 7.539 12.061 14.669 0 6.122-3.674 11.563-9.358 13.861-.945.382-1.563 1.299-1.563 2.318v18.469h-8.065v-18.469c0-1.019-.618-1.936-1.563-2.318-5.685-2.298-9.358-7.739-9.356-13.862.007-.096.013-.191.015-.288.021-1.211-.83-2.264-2.02-2.497-6.988-1.37-12.061-7.539-12.061-14.669 0-4.328 1.888-8.445 5.178-11.296.549-.475.863-1.165.863-1.89s-.315-1.415-.863-1.89c-3.29-2.851-5.178-6.968-5.178-11.296s1.888-8.445 5.178-11.296c.548-.475.863-1.165.863-1.89s-.314-1.415-.863-1.89c-3.29-2.851-5.178-6.968-5.178-11.296s1.888-8.445 5.178-11.296c.549-.475.863-1.165.863-1.89s-.314-1.415-.863-1.89c-3.29-2.851-5.178-6.968-5.178-11.296 0-1.381-1.119-2.5-2.5-2.5s-2.5 1.119-2.5 2.5c0 4.881 1.795 9.56 4.996 13.186-3.201 3.626-4.996 8.305-4.996 13.186s1.795 9.56 4.996 13.186c-3.201 3.626-4.996 8.304-4.996 13.186s1.795 9.56 4.996 13.186c-3.201 3.626-4.996 8.305-4.996 13.186 0 8.83 5.833 16.557 14.129 19.083.558 6.93 4.65 13.018 10.856 16.158v19.361c0 1.381 1.119 2.5 2.5 2.5h13.065c1.381 0 2.5-1.119 2.5-2.5v-19.361c6.688-3.384 10.922-10.192 10.922-17.787 0-8.831-5.832-16.558-14.129-19.084-.353-4.286-2.087-8.336-4.93-11.557 3.201-3.626 4.996-8.304 4.996-13.186 0-4.881-1.795-9.56-4.996-13.186 3.201-3.626 4.996-8.305 4.996-13.186 0-2.871-.621-5.671-1.783-8.229 2.574 1.181 5.397 1.812 8.295 1.812 4.906 0 9.602-1.809 13.233-5.036 3.632 3.227 8.327 5.036 13.234 5.036 4.906 0 9.602-1.809 13.233-5.036 3.632 3.227 8.327 5.036 13.233 5.036s9.602-1.809 13.233-5.036c3.632 3.227 8.327 5.036 13.233 5.036 2.869 0 5.668-.62 8.224-1.78-1.153 2.549-1.77 5.338-1.77 8.197 0 4.881 1.795 9.56 4.996 13.186-3.201 3.626-4.996 8.304-4.996 13.186s1.795 9.56 4.996 13.186c-2.843 3.221-4.577 7.271-4.93 11.557-8.297 2.526-14.129 10.253-14.129 19.084 0 7.594 4.234 14.402 10.922 17.787v31.893c0 1.381 1.119 2.5 2.5 2.5h13.065c1.381 0 2.5-1.119 2.5-2.5v-31.893c6.206-3.14 10.299-9.228 10.856-16.158 8.296-2.527 14.129-10.253 14.129-19.083 0-4.881-1.795-9.56-4.996-13.186 3.201-3.626 4.996-8.305 4.996-13.186s-1.795-9.56-4.996-13.186c3.201-3.626 4.996-8.305 4.996-13.186s-1.794-9.56-4.995-13.186z" data-original="#846F75" class="" style="fill:#202C59" data-old_color="#846F75"/><path d="m60.861 58.238c4.354 0 8.485 1.903 11.337 5.222.951 1.105 2.842 1.105 3.793 0 2.852-3.319 6.983-5.222 11.337-5.222s8.485 1.903 11.337 5.222c.951 1.105 2.842 1.105 3.793 0 2.852-3.319 6.984-5.222 11.338-5.222s8.485 1.903 11.337 5.222c.951 1.105 2.842 1.105 3.793 0 2.852-3.319 6.983-5.222 11.337-5.222s8.485 1.903 11.337 5.222c.476.553 1.168.871 1.896.871s1.421-.318 1.896-.871c2.852-3.319 6.983-5.222 11.337-5.222 4.338 0 8.461 1.894 11.313 5.195.949 1.1 2.833 1.099 3.784 0 2.851-3.301 6.974-5.195 11.312-5.195 1.381 0 2.5-1.119 2.5-2.5s-1.119-2.5-2.5-2.5c-4.892 0-9.576 1.8-13.204 5.012-3.629-3.211-8.313-5.012-13.205-5.012-4.907 0-9.602 1.809-13.233 5.036-3.632-3.227-8.326-5.036-13.233-5.036s-9.602 1.809-13.233 5.036c-3.632-3.227-8.326-5.036-13.233-5.036s-9.603 1.809-13.234 5.036c-3.632-3.227-8.326-5.036-13.233-5.036s-9.602 1.809-13.233 5.036c-3.632-3.227-8.326-5.036-13.233-5.036-1.381 0-2.5 1.119-2.5 2.5s1.116 2.5 2.497 2.5z" data-original="#846F75" class="" style="fill:#202C59" data-old_color="#846F75"/><path d="m126.959 151.387c1.381 0 2.5-1.119 2.5-2.5v-17.826c0-1.381-1.119-2.5-2.5-2.5s-2.5 1.119-2.5 2.5v17.826c0 1.381 1.119 2.5 2.5 2.5z" data-original="#846F75" class="" style="fill:#202C59" data-old_color="#846F75"/><path d="m127.041 156.077c-1.381 0-2.5 1.119-2.5 2.5v2.998c0 1.381 1.119 2.5 2.5 2.5s2.5-1.119 2.5-2.5v-2.998c0-1.381-1.119-2.5-2.5-2.5z" data-original="#846F75" class="" style="fill:#202C59" data-old_color="#846F75"/></g></g></g> </svg>
