<?xml version="1.0"?>
<svg xmlns="http://www.w3.org/2000/svg" id="kidneys" enable-background="new 0 0 300 300" height="512px" viewBox="0 0 300 300" width="512px" class=""><g><g><path d="m227.23 248c2.211 0 4-1.791 4-4v-8c0-2.209-1.789-4-4-4s-4 1.791-4 4v8c0 2.209 1.79 4 4 4z" data-original="#000000" class="active-path" data-old_color="#000000" fill="#202C59"/><path d="m227.23 256c-2.211 0-4 1.791-4 4v8c0 2.209 1.789 4 4 4s4-1.791 4-4v-8c0-2.209-1.789-4-4-4z" data-original="#000000" class="active-path" data-old_color="#000000" fill="#202C59"/><path d="m219.23 248h-8c-2.211 0-4 1.791-4 4s1.789 4 4 4h8c2.211 0 4-1.791 4-4s-1.789-4-4-4z" data-original="#000000" class="active-path" data-old_color="#000000" fill="#202C59"/><path d="m243.23 248h-8c-2.211 0-4 1.791-4 4s1.789 4 4 4h8c2.211 0 4-1.791 4-4s-1.789-4-4-4z" data-original="#000000" class="active-path" data-old_color="#000000" fill="#202C59"/><path d="m85.23 228c-7.719 0-14 6.281-14 14s6.281 14 14 14 14-6.281 14-14-6.281-14-14-14zm0 20c-3.309 0-6-2.691-6-6s2.691-6 6-6 6 2.691 6 6-2.691 6-6 6z" data-original="#000000" class="active-path" data-old_color="#000000" fill="#202C59"/><path d="m212.383 66.4h-3.492c-17.609 0-31.938 14.326-31.938 31.938 0 7.711 2.867 15.146 7.98 20.955-1.191 1.353-2.247 2.801-3.186 4.313-6.05-1.397-10.517-6.849-10.517-13.138v-78.468c0-2.209-1.789-4-4-4s-4 1.791-4 4v78.469c0 9.455 6.339 17.744 15.159 20.509-.799 2.574-1.262 5.249-1.376 7.972-12.611-3.459-21.783-15.177-21.783-28.48v-78.47c0-2.209-1.789-4-4-4s-4 1.791-4 4v78.469c0 14.508-10.354 26.528-24.22 29.024-.065-2.695-.462-5.351-1.2-7.909 9.91-1.927 17.42-10.65 17.42-21.115v-78.469c0-2.209-1.791-4-4-4s-4 1.791-4 4v78.469c0 7.199-5.668 13.049-12.767 13.454-.986-1.631-2.121-3.181-3.397-4.63 5.111-5.807 7.979-13.244 7.979-20.955 0-17.611-14.326-31.938-31.938-31.938h-3.492c-31.09 0-56.385 33.127-56.385 73.846s25.295 73.846 56.385 73.846h3.492c17.611 0 31.938-14.326 31.938-31.938 0-7.711-2.867-15.146-7.979-20.955 3.43-3.895 5.82-8.533 7.041-13.488 12.85-1.493 23.599-9.357 29.118-20.347 5.104 10.187 14.727 17.73 26.574 19.954 1.188 5.102 3.613 9.882 7.134 13.88-5.113 5.809-7.98 13.244-7.98 20.955 0 17.611 14.328 31.938 31.938 31.938h3.492c31.09 0 56.387-33.127 56.387-73.846s-25.297-73.845-56.387-73.845zm-105.606 97.811c5.254 4.592 8.268 11.133 8.268 17.943 0 13.199-10.738 23.938-23.938 23.938h-3.492c-26.68 0-48.385-29.539-48.385-65.846s21.706-65.846 48.385-65.846h3.492c13.199 0 23.938 10.738 23.938 23.938 0 6.811-3.014 13.352-8.268 17.943-.869.76-1.367 1.857-1.367 3.012s.498 2.252 1.367 3.012c5.254 4.592 8.268 11.131 8.268 17.941 0 6.812-3.014 13.352-8.266 17.941-.871.76-1.369 1.857-1.369 3.012s.498 2.252 1.367 3.012zm105.606 41.881h-3.492c-13.199 0-23.938-10.738-23.938-23.938 0-6.811 3.016-13.35 8.27-17.943.867-.76 1.367-1.857 1.367-3.012s-.5-2.252-1.367-3.012c-5.254-4.592-8.27-11.131-8.27-17.941 0-6.809 3.016-13.348 8.27-17.941.867-.76 1.367-1.857 1.367-3.012s-.5-2.252-1.367-3.012c-5.254-4.594-8.27-11.133-8.27-17.943 0-13.199 10.738-23.938 23.938-23.938h3.492c26.68 0 48.387 29.539 48.387 65.846s-21.708 65.846-48.387 65.846z" data-original="#000000" class="active-path" data-old_color="#000000" fill="#202C59"/><path d="m252.996 119.953c-3.461-14.354-10.605-26.137-20.125-33.184-1.773-1.312-4.273-.938-5.594.834-1.312 1.775-.941 4.281.836 5.596 7.895 5.846 14.129 16.279 17.109 28.629.441 1.832 2.078 3.062 3.883 3.062.312 0 .625-.035.941-.111 2.149-.517 3.47-2.679 2.95-4.826z" data-original="#000000" class="active-path" data-old_color="#000000" fill="#202C59"/><circle cx="199.23" cy="228" r="4" data-original="#000000" class="active-path" data-old_color="#000000" fill="#202C59"/><circle cx="255.23" cy="216" r="4" data-original="#000000" class="active-path" data-old_color="#000000" fill="#202C59"/></g></g> </svg>
