<?xml version="1.0"?>
<svg xmlns="http://www.w3.org/2000/svg" height="512px" viewBox="0 0 128 128" width="512px"><g><g><path d="m120.614 53.133-42.752-42.751a25.217 25.217 0 0 0 -35.662 35.662l42.752 42.756a25.217 25.217 0 0 0 35.662-35.663zm-82.3-24.92a21.725 21.725 0 0 1 37.074-15.357l20.139 20.139-30.714 30.713-20.138-20.139a21.572 21.572 0 0 1 -6.361-15.356zm79.826 58.108a21.747 21.747 0 0 1 -30.713 0l-20.139-20.138 30.712-30.714 20.14 20.138a21.746 21.746 0 0 1 0 30.714z" data-original="#000000" class="active-path" data-old_color="#000000" fill="#202C59"/><path d="m67.039 21.205a1.75 1.75 0 1 0 2.475-2.475 13.425 13.425 0 0 0 -18.964 0 1.75 1.75 0 1 0 2.474 2.475 9.923 9.923 0 0 1 14.015 0z" data-original="#000000" class="active-path" data-old_color="#000000" fill="#202C59"/><path d="m29.594 65.816a29.594 29.594 0 1 0 29.593 29.594 29.627 29.627 0 0 0 -29.593-29.594zm0 55.688a26.094 26.094 0 1 1 26.093-26.094 26.124 26.124 0 0 1 -26.093 26.09z" data-original="#000000" class="active-path" data-old_color="#000000" fill="#202C59"/><path d="m40.169 82.36-23.625 23.625a1.75 1.75 0 1 0 2.475 2.475l23.625-23.625a1.75 1.75 0 0 0 -2.475-2.475z" data-original="#000000" class="active-path" data-old_color="#000000" fill="#202C59"/></g></g> </svg>
