<?xml version="1.0"?>
<svg xmlns="http://www.w3.org/2000/svg" height="512px" viewBox="-43 0 512 512.002" width="512px"><g><path d="m328.410156 185.804688h22.617188c6.179687 0 11.207031-5.027344 11.207031-11.207032v-10.75h10.75c6.183594 0 11.210937-5.027344 11.210937-11.210937v-22.613281c0-6.183594-5.027343-11.210938-11.210937-11.210938h-10.75v-10.75c0-6.179688-5.027344-11.207031-11.207031-11.207031h-22.617188c-6.179687 0-11.207031 5.027343-11.207031 11.207031v10.75h-10.753906c-6.179688 0-11.207031 5.027344-11.207031 11.210938v22.613281c0 6.183593 5.027343 11.210937 11.207031 11.210937h10.753906v10.75c0 6.179688 5.027344 11.207032 11.207031 11.207032zm-18.167968-36.960938v-15.027344h10.753906c6.179687 0 11.207031-5.027344 11.207031-11.207031v-10.753906h15.03125v10.753906c0 6.179687 5.027344 11.207031 11.207031 11.207031h10.75v15.027344h-10.75c-6.179687 0-11.207031 5.027344-11.207031 11.207031v10.753907h-15.03125v-10.753907c0-6.179687-5.027344-11.207031-11.207031-11.207031zm0 0" data-original="#000000" class="active-path" fill="#000000"/><path d="m46.753906 240.007812v20.304688c0 20.058594-7.8125 38.917969-21.996094 53.101562l-18.8125 18.8125c-12.691406 12.691407-3.722656 34.390626 14.25 34.390626h26.558594v22.714843c0 38.90625 31.648438 70.558594 70.558594 70.558594 9.382812 0 17.019531 7.636719 17.019531 17.023437v20.144532c0 8.238281 6.703125 14.945312 14.945313 14.945312h40.042968c4.140626 0 7.5-3.359375 7.5-7.503906 0-4.140625-3.359374-7.5-7.5-7.5l-39.988281.058594v-20.144532c0-17.660156-14.363281-32.023437-32.019531-32.023437-30.636719 0-55.558594-24.921875-55.558594-55.558594v-23.207031c0-8-6.507812-14.507812-14.507812-14.507812h-27.050782c-4.597656 0-6.894531-5.53125-3.640624-8.785157l18.8125-18.808593c17.015624-17.019532 26.386718-39.644532 26.386718-63.707032v-20.308594c0-58.015624 39.105469-108.902343 94.214844-124.347656v80.359375c0 11.9375 6.1875 23.382813 16.949219 29.707031v11.945313c0 9.566406 6.628906 17.597656 15.53125 19.792969v31.507812c0 4.144532 3.355469 7.5 7.5 7.5s7.5-3.355468 7.5-7.5v-31.507812c8.902343-2.195313 15.53125-10.222656 15.53125-19.792969v-11.945313c10.777343-6.332031 16.949219-17.789062 16.949219-29.707031v-77.054687c5.871093 2.1875 11.589843 4.808594 17.101562 7.84375v96.886718c0 14.105469 11.476562 25.582032 25.582031 25.582032h41.390625v50.285156c0 31.472656-11.460937 61.796875-32.273437 85.375-14.203125 16.101562-22.027344 37.527344-22.027344 60.34375l-.054687 51.71875h-41.328126c-4.144531 0-7.5 3.355469-7.5 7.5s3.355469 7.5 7.5 7.5h41.328126c8.300781 0 15.054687-6.753906 15.054687-15.054688v-51.664062c0-19.15625 6.492187-37.0625 18.273437-50.414062 23.230469-26.324219 36.027344-60.171876 36.027344-95.304688v-50.285156h65.816406c14.105469 0 25.582032-11.476563 25.582032-25.582032v-64.863281c0-4.144531-3.355469-7.5-7.5-7.5-4.140625 0-7.5 3.355469-7.5 7.5v64.863281c0 5.832032-4.746094 10.582032-10.582032 10.582032-2.929687 0-120.273437 0-122.207031 0-5.839843 0-10.582031-4.753906-10.582031-10.582032v-156.144531c0-5.835937 4.746094-10.582031 10.582031-10.582031h122.207031c5.835938 0 10.582032 4.746094 10.582032 10.582031v56.277344c0 4.144531 3.359375 7.5 7.5 7.5 4.144531 0 7.5-3.355469 7.5-7.5v-56.277344c0-10.21875-6.019532-19.050781-14.699219-23.148437v-25.277344c0-6.929688-5.632813-12.5625-12.5625-12.5625h-27.183594c-9.976562 0-81.167969 0-91.664062 0-6.925781 0-12.5625 5.632812-12.5625 12.5625v25.277344c-8.679688 4.09375-14.699219 12.929687-14.699219 23.148437v42.410157c-5.554688-2.660157-11.265625-4.957032-17.101562-6.878907v-7.785156c4.035156-.121094 7.269531-3.421875 7.269531-7.488281 0-4.140625-3.359375-7.5-7.5-7.5-4.878907 0-8.046875 0-12.957031 0v-65.308594h1.535156c4.144531 0 7.5-3.355469 7.5-7.5s-3.355469-7.5-7.5-7.5c-6.113282 0-50.519532 0-56.660156 0-4.144532 0-7.5 3.355469-7.5 7.5s3.355468 7.5 7.5 7.5h1.535156v65.308594c-5.34375 0-9.011719 0-14.398438 0-4.144531 0-7.5 3.359375-7.5 7.5 0 4.144531 3.355469 7.503906 7.5 7.503906h1.210938v4.835938c-63.933594 15.949218-109.210938 73.578124-109.210938 139.859374zm332.707032-218.445312h17.242187v20.402344h-17.242187zm-32.242188 0h17.242188v20.402344h-17.242188zm-32.242188 0h17.242188v20.402344h-17.242188zm-32.242187 0h17.242187v20.402344h-17.242187zm-78.753906 216.109375c0 2.980469-2.425781 5.40625-5.40625 5.40625h-5.25c-2.980469 0-5.40625-2.425781-5.40625-5.40625v-7.25c1.929687.140625 14.121093.140625 16.0625 0zm-19.824219-222.671875h23.585938v65.308594h-23.585938zm-13.1875 146.109375h5.6875c4.144531 0 7.5-3.359375 7.5-7.503906 0-4.140625-3.355469-7.5-7.5-7.5h-5.6875v-22.570313h5.6875c4.144531 0 7.5-3.359375 7.5-7.503906 0-4.140625-3.355469-7.5-7.5-7.5h-5.6875c0-3.507812 0 2.054688 0-13.21875h49.960938v100.707031c0 10.785157-8.816407 19.492188-19.492188 19.492188h-10.976562c-9.480469 0-17.921876-6.953125-19.289063-16.828125h5.484375c4.140625 0 7.5-3.359375 7.5-7.503906 0-4.140626-3.359375-7.5-7.5-7.5h-5.6875zm0 0" data-original="#000000" class="active-path" fill="#000000"/></g> </svg>
