<?xml version="1.0"?>
<svg xmlns="http://www.w3.org/2000/svg" width="512px" height="512px" viewBox="0 0 128 128"><g><g><path d="M47.924,19.953A12.375,12.375,0,1,0,60.3,32.328,12.39,12.39,0,0,0,47.924,19.953Zm0,21.25A8.875,8.875,0,1,1,56.8,32.328,8.885,8.885,0,0,1,47.924,41.2Z" data-original="#000000" class="active-path" data-old_color="#000000" fill="#202C59"/><path d="M47.924,11.953a20.369,20.369,0,0,0-5.75,39.912v4H33.267a1.75,1.75,0,0,0-1.75,1.75v8a1.749,1.749,0,0,0,1.75,1.75h8.907v8.908a1.75,1.75,0,0,0,1.75,1.75h8a1.75,1.75,0,0,0,1.75-1.75V67.361h8.908a1.749,1.749,0,0,0,1.75-1.75v-8a1.75,1.75,0,0,0-1.75-1.75H53.674v-4a20.369,20.369,0,0,0-5.75-39.912ZM51.548,48.8a1.75,1.75,0,0,0-1.374,1.709v7.1a1.749,1.749,0,0,0,1.75,1.75h8.908v4.5H51.924a1.75,1.75,0,0,0-1.75,1.75v8.908h-4.5V65.611a1.75,1.75,0,0,0-1.75-1.75H35.017v-4.5h8.907a1.749,1.749,0,0,0,1.75-1.75v-7.1A1.751,1.751,0,0,0,44.3,48.8a16.875,16.875,0,1,1,7.248,0Z" data-original="#000000" class="active-path" data-old_color="#000000" fill="#202C59"/><path d="M114.741,69.982h-9.09V60.893a1.749,1.749,0,0,0-1.75-1.75h-8a1.75,1.75,0,0,0-1.75,1.75v9.089h-9.09a1.751,1.751,0,0,0-1.75,1.75v8a1.75,1.75,0,0,0,1.75,1.75h9.09v9.09a1.75,1.75,0,0,0,1.75,1.75h8a1.749,1.749,0,0,0,1.75-1.75v-9.09h9.09a1.749,1.749,0,0,0,1.75-1.75v-8A1.75,1.75,0,0,0,114.741,69.982Zm-1.75,8H103.9a1.751,1.751,0,0,0-1.75,1.75v9.09h-4.5v-9.09a1.75,1.75,0,0,0-1.75-1.75h-9.09v-4.5H95.9a1.749,1.749,0,0,0,1.75-1.75V62.643h4.5v9.089a1.75,1.75,0,0,0,1.75,1.75h9.09Z" data-original="#000000" class="active-path" data-old_color="#000000" fill="#202C59"/><path d="M99.9,49.135a26.431,26.431,0,0,0-14.686,4.437,52.333,52.333,0,0,1-3.3-39.012L85.741,2.272A1.751,1.751,0,0,0,84.07,0H11.778a1.751,1.751,0,0,0-1.671,2.27l3.825,12.287a52.223,52.223,0,0,1-4.8,41.83,55.75,55.75,0,0,0-6.94,36.863l5.3,33.271A1.751,1.751,0,0,0,9.222,128h77.4a1.75,1.75,0,0,0,1.728-1.475l4.029-25.283a26.6,26.6,0,1,0,7.518-52.1ZM85.133,124.5H49.674V94.5c9.078-1.316,16.952-12.3,17.3-12.8a1.75,1.75,0,0,0-2.856-2.023c-.081.115-8.216,11.45-16.2,11.45S31.808,79.8,31.727,79.685a1.75,1.75,0,0,0-2.857,2.023c.352.5,8.226,11.48,17.3,12.8V124.5H10.715L5.65,92.7a52.237,52.237,0,0,1,6.5-34.543,55.723,55.723,0,0,0,5.121-44.639L14.156,3.5H81.692L78.575,13.52A55.848,55.848,0,0,0,82.4,55.733,26.566,26.566,0,0,0,89.035,100ZM99.9,98.829a23.1,23.1,0,1,1,23.1-23.1A23.123,23.123,0,0,1,99.9,98.829Z" data-original="#000000" class="active-path" data-old_color="#000000" fill="#202C59"/></g></g> </svg>
