<?xml version="1.0"?>
<svg xmlns="http://www.w3.org/2000/svg" xmlns:xlink="http://www.w3.org/1999/xlink" version="1.1" id="Capa_1" x="0px" y="0px" viewBox="0 0 512.001 512.001" style="enable-background:new 0 0 512.001 512.001;" xml:space="preserve" width="512px" height="512px"><g><g>
	<g>
		<g>
			<circle cx="42.858" cy="74.602" r="7.394" data-original="#000000" class="active-path" data-old_color="#000000" fill="#202C59"/>
			<path d="M215.069,371.456v-20.623c0-4.143-3.357-7.5-7.5-7.5s-7.5,3.357-7.5,7.5v20.623c0,4.143,3.357,7.5,7.5,7.5     C211.711,378.956,215.069,375.598,215.069,371.456z" data-original="#000000" class="active-path" data-old_color="#000000" fill="#202C59"/>
			<circle cx="469.142" cy="74.602" r="7.394" data-original="#000000" class="active-path" data-old_color="#000000" fill="#202C59"/>
			<path d="M472.521,41.239l-19.62-31.562c-2.89-4.648-7.414-7.892-12.742-9.136c-5.326-1.24-10.822-0.336-15.469,2.552     c-4.647,2.89-7.891,7.414-9.134,12.742c-1.244,5.329-0.338,10.822,2.552,15.469l19.616,31.555     c-1.39,3.724-2.121,7.704-2.114,11.798c0.001,0.539,0.017,1.075,0.044,1.607l-55.368,47.279     c-27.809-8.745-57.995-2.949-80.617,15.444c-9.388-2.911-19.541,2.026-22.937,11.362c-1.696,4.66-1.477,9.702,0.619,14.197     c2.096,4.494,5.817,7.904,10.477,9.601l138.047,50.245c2.072,0.754,4.221,1.13,6.362,1.13c2.674,0,5.34-0.586,7.836-1.75     c4.494-2.096,7.903-5.817,9.6-10.477c1.696-4.66,1.477-9.702-0.619-14.197c-1.969-4.22-5.382-7.465-9.648-9.252     c-3.213-16.701-11.152-31.773-22.557-43.654l45.406-38.773c2.224,0.466,4.528,0.715,6.888,0.715h0.056     c18.489-0.031,33.507-15.099,33.477-33.588C502.646,57.216,489.408,42.937,472.521,41.239z M430.847,23.385     c-0.773-1.243-1.016-2.714-0.683-4.14c0.333-1.427,1.201-2.638,2.447-3.412c1.244-0.773,2.713-1.015,4.139-0.684     c1.426,0.333,2.638,1.202,3.412,2.447l16.164,26.002c-3.371,1.393-6.507,3.35-9.302,5.811L430.847,23.385z M422.302,183.573     l-3.156-1.149c-3.898-1.414-8.197,0.591-9.613,4.482c-1.417,3.893,0.59,8.196,4.482,9.613l16.062,5.846     c0.005,0.002,0.01,0.004,0.015,0.006l3.354,1.221c1.209,0.44,1.78,1.345,2.014,1.845c0.233,0.5,0.559,1.519,0.118,2.728     c-0.439,1.207-1.344,1.779-1.844,2.012c-0.501,0.233-1.522,0.557-2.728,0.119l-138.047-50.245     c-1.209-0.44-1.78-1.344-2.014-1.845c-0.232-0.5-0.559-1.519-0.118-2.728c0.439-1.208,1.344-1.779,1.844-2.013     c0.5-0.234,1.52-0.559,2.728-0.119l3.303,1.202c0.024,0.008,0.047,0.017,0.071,0.026l82.366,29.98     c3.892,1.413,8.196-0.592,9.613-4.482c1.417-3.893-0.59-8.196-4.482-9.613l-69.466-25.285c18.453-11.363,41.217-13.879,62.03-6.3     C399.648,146.449,415.471,163.008,422.302,183.573z M405.432,136.217c-3.079-2.245-6.321-4.294-9.71-6.133l44.71-38.177     c1.909,3.155,4.325,5.968,7.131,8.334L405.432,136.217z M469.172,93.135h-0.03c-10.204-0.001-18.516-8.294-18.532-18.503     c-0.017-10.219,8.283-18.546,18.502-18.563h0.03c10.204,0,18.516,8.294,18.532,18.503     C487.691,84.79,479.391,93.117,469.172,93.135z" data-original="#000000" class="active-path" data-old_color="#000000" fill="#202C59"/>
			<path d="M98.275,111.924c-7.382,10.146-12.575,21.926-15.024,34.655c-9.064,3.804-13.664,14.113-10.268,23.448     c1.697,4.66,5.107,8.381,9.601,10.477c2.496,1.164,5.161,1.75,7.836,1.75c2.142,0,4.289-0.376,6.361-1.13l138.048-50.245     c4.66-1.697,8.381-5.106,10.477-9.601c2.097-4.495,2.316-9.537,0.62-14.197c-1.697-4.66-5.106-8.381-9.601-10.477     c-4.221-1.969-8.921-2.26-13.338-0.886c-23.382-19.01-54.848-24.565-83.412-14.511L74.543,62.429l19.35-31.125     c5.961-9.593,3.009-22.248-6.583-28.212C77.717-2.869,65.062,0.084,59.1,9.675L39.479,41.239     C22.594,42.937,9.354,57.217,9.326,74.547c-0.03,18.489,14.987,33.557,33.477,33.588h0.056c7.4-0.001,14.247-2.416,19.801-6.494     L98.275,111.924z M223.908,111.298c0.002-0.001,0.005-0.002,0.007-0.002l3.343-1.217c0.435-0.158,0.845-0.218,1.215-0.218     c0.659,0,1.191,0.188,1.512,0.337c0.5,0.233,1.405,0.805,1.845,2.013c0.439,1.208,0.114,2.227-0.119,2.727     c-0.233,0.5-0.805,1.405-2.013,1.845L91.65,167.026c-1.209,0.44-2.226,0.114-2.726-0.119c-0.5-0.232-1.405-0.805-1.845-2.012     c-0.673-1.849,0.284-3.899,2.132-4.572l3.346-1.218c0.01-0.004,0.02-0.007,0.029-0.011L223.908,111.298z M143.824,95.605     c20.814-7.575,43.579-5.062,62.03,6.301l-105.499,38.398c3.405-10.252,9.046-19.504,16.426-27.148     c0.005-0.005,0.009-0.01,0.014-0.015C124.218,105.461,133.392,99.402,143.824,95.605z M76.155,78.508l43.676,12.61     c-3.743,2.523-7.262,5.325-10.539,8.373L73.113,89.046C74.674,85.788,75.719,82.241,76.155,78.508z M71.838,17.596     c1.597-2.566,4.986-3.358,7.553-1.763c2.567,1.597,3.358,4.986,1.763,7.554L64.975,49.408c-2.795-2.461-5.931-4.417-9.302-5.811     L71.838,17.596z M42.858,93.135h-0.03c-10.219-0.018-18.519-8.345-18.502-18.563c0.017-10.209,8.327-18.503,18.532-18.503h0.03     c10.219,0.017,18.519,8.344,18.502,18.563C61.372,84.841,53.062,93.135,42.858,93.135z" data-original="#000000" class="active-path" data-old_color="#000000" fill="#202C59"/>
			<path d="M412.458,355.252v-19.887c0-4.143-3.358-7.5-7.5-7.5c-4.143,0-7.5,3.357-7.5,7.5v19.887c0,4.143,3.357,7.5,7.5,7.5     C409.101,362.752,412.458,359.394,412.458,355.252z" data-original="#000000" class="active-path" data-old_color="#000000" fill="#202C59"/>
			<path d="M125.815,299.463c-4.143,0-7.5,3.358-7.5,7.5v19.566c0,4.142,3.357,7.5,7.5,7.5s7.5-3.358,7.5-7.5v-19.566     C133.315,302.82,129.957,299.463,125.815,299.463z" data-original="#000000" class="active-path" data-old_color="#000000" fill="#202C59"/>
			<path d="M431.673,296.938H199.227c-5.997,0-11.635-2.335-15.875-6.576l-74.476-74.477c-11.441-11.441-29.99-11.731-41.348-0.647     c-5.669,5.532-8.791,12.94-8.791,20.859v99.371c0,9.692,4.893,18.566,13.087,23.738l36.449,23.009     c3.502,2.213,8.135,1.163,10.346-2.338c2.211-3.503,1.164-8.135-2.338-10.346l-36.45-23.01c-3.815-2.408-6.094-6.54-6.094-11.054     v-99.371c0-3.843,1.516-7.438,4.268-10.124c5.508-5.375,14.6-5.146,20.264,0.52l74.476,74.477     c7.074,7.073,16.479,10.969,26.482,10.969h232.446c7.797,0,14.14,6.343,14.14,14.139v43.433     c0,14.668-11.934,26.602-26.602,26.602h-76.723v-45.277c0-4.143-3.358-7.5-7.5-7.5c-4.143,0-7.5,3.357-7.5,7.5v45.277H173.166     c-9.67,0-19.103-2.728-27.277-7.89c-3.502-2.213-8.134-1.165-10.346,2.338c-2.211,3.502-1.165,8.135,2.338,10.346     c10.575,6.677,22.776,10.206,35.285,10.206h32.393v10.554c0,10.485,8.53,19.016,19.016,19.016h6.626v27.51h-28.713     c-10.931,0-19.824,8.894-19.824,19.824v9.904c0,7.766,6.317,14.083,14.083,14.083h140.064c7.765,0,14.082-6.317,14.082-14.083     v-9.904c0-10.931-8.894-19.824-19.824-19.824h-28.712v-27.51h6.626c10.485,0,19.016-8.53,19.016-19.016v-10.554h91.213     c22.939,0,41.602-18.662,41.602-41.602v-43.433C460.812,310.01,447.741,296.938,431.673,296.938z M331.069,483.188     c2.66,0,4.824,2.164,4.824,4.824v8.987H197.664v-8.987c0-2.66,2.164-4.824,4.824-4.824H331.069z M246.201,468.188v-27.51h41.157     v27.51H246.201z M308.982,425.68h-84.408c-2.214,0-4.016-1.802-4.016-4.016V411.11h92.439v10.554h0.001     C312.998,423.878,311.196,425.68,308.982,425.68z" data-original="#000000" class="active-path" data-old_color="#000000" fill="#202C59"/>
		</g>
	</g>
</g></g> </svg>
