<?xml version="1.0"?>
<svg xmlns="http://www.w3.org/2000/svg" id="Capa_1" enable-background="new 0 0 512 512" height="512px" viewBox="0 0 512 512" width="512px" class=""><g><g><path d="m418.317 93.683c-44.838-44.839-117.797-44.839-162.635 0-44.839 44.838-44.839 117.796 0 162.634 22.419 22.419 51.868 33.629 81.317 33.629s58.898-11.209 81.317-33.629c44.839-44.838 44.839-117.796.001-162.634zm-141.421 120.208c2.833-2.833 6.601-4.393 10.606-4.393 4.007 0 7.774 1.56 10.607 4.393s4.394 6.6 4.394 10.607c0 4.006-1.561 7.773-4.394 10.606-5.849 5.848-15.365 5.849-21.214 0-5.847-5.848-5.847-15.364.001-21.213zm120.209 21.213c-21.478 21.476-51.681 29.017-79.302 22.658.514-.469 1.023-.948 1.52-1.445 17.546-17.545 17.546-46.094 0-63.639-17.546-17.546-46.096-17.545-63.64 0-.497.497-.976 1.006-1.445 1.52-6.36-27.622 1.18-57.825 22.658-79.302 16.573-16.572 38.334-24.856 60.104-24.856 21.764 0 43.535 8.288 60.104 24.856 33.141 33.142 33.141 87.067.001 120.208z" data-original="#000000" class="active-path" data-old_color="#000000" fill="#202C59"/><circle cx="368.82" cy="192.678" r="15" data-original="#000000" class="active-path" data-old_color="#000000" fill="#202C59"/><circle cx="319.322" cy="143.18" r="15" data-original="#000000" class="active-path" data-old_color="#000000" fill="#202C59"/><path d="m460.809 51.265c-33.064-33.059-77.024-51.265-123.783-51.265s-90.72 18.206-123.783 51.265l-162.053 162.026c-68.253 68.244-68.253 179.284 0 247.527 34.128 34.121 78.955 51.182 123.783 51.182s89.656-17.061 123.783-51.182l162.053-162.026c68.254-68.244 68.254-179.284 0-247.527zm-392.822 187.875 63.281 236.169c-21.546-6.769-41.814-18.667-58.858-35.708-55.035-55.027-56.504-143.631-4.423-200.461zm96.023 242.453-71.572-267.111 51.394-51.385 82.909 309.42c-20.093 7.642-41.554 10.667-62.731 9.076zm113.527-41.992c-7.282 7.28-15.155 13.616-23.461 19.021l-29.738-110.982 114.491 30.678zm162.053-162.026-76.262 76.249-147.955-39.644-47.045-175.575 66.134-66.124c27.396-27.392 63.821-42.477 102.564-42.477 38.744 0 75.168 15.085 102.564 42.477 56.553 56.545 56.553 148.55 0 205.094z" data-original="#000000" class="active-path" data-old_color="#000000" fill="#202C59"/></g></g> </svg>
