<?xml version="1.0"?>
<svg xmlns="http://www.w3.org/2000/svg" id="Outline" viewBox="0 0 512 512" width="512px" height="512px"><g><path d="M408.08,448H408a8.04,8.04,0,1,0,.08,0Z" data-original="#000000" class="active-path" data-old_color="#000000" fill="#202C59"/><path d="M408.08,416H408a8.04,8.04,0,1,0,.08,0Z" data-original="#000000" class="active-path" data-old_color="#000000" fill="#202C59"/><path d="M408.08,384H408a8.04,8.04,0,1,0,.08,0Z" data-original="#000000" class="active-path" data-old_color="#000000" fill="#202C59"/><path d="M408.08,352H408a8.04,8.04,0,1,0,.08,0Z" data-original="#000000" class="active-path" data-old_color="#000000" fill="#202C59"/><path d="M408.08,320H408a8.04,8.04,0,1,0,.08,0Z" data-original="#000000" class="active-path" data-old_color="#000000" fill="#202C59"/><path d="M408.08,288H408a8.04,8.04,0,1,0,.08,0Z" data-original="#000000" class="active-path" data-old_color="#000000" fill="#202C59"/><path d="M408.08,256H408a8.04,8.04,0,1,0,.08,0Z" data-original="#000000" class="active-path" data-old_color="#000000" fill="#202C59"/><path d="M408.08,224H408a8.04,8.04,0,1,0,.08,0Z" data-original="#000000" class="active-path" data-old_color="#000000" fill="#202C59"/><path d="M408.08,64H408a8.04,8.04,0,1,0,.08,0Z" data-original="#000000" class="active-path" data-old_color="#000000" fill="#202C59"/><path d="M408.08,192H408a8.04,8.04,0,1,0,.08,0Z" data-original="#000000" class="active-path" data-old_color="#000000" fill="#202C59"/><path d="M408.08,160H408a8.04,8.04,0,1,0,.08,0Z" data-original="#000000" class="active-path" data-old_color="#000000" fill="#202C59"/><path d="M408.08,128H408a8.04,8.04,0,1,0,.08,0Z" data-original="#000000" class="active-path" data-old_color="#000000" fill="#202C59"/><path d="M408.08,96H408a8.04,8.04,0,1,0,.08,0Z" data-original="#000000" class="active-path" data-old_color="#000000" fill="#202C59"/><path d="M488,496a8,8,0,0,0,8-8V24a8,8,0,0,0-8-8,56.063,56.063,0,0,0-56,56V440A56.063,56.063,0,0,0,488,496ZM448,72a40.071,40.071,0,0,1,32-39.2V479.2A40.071,40.071,0,0,1,448,440Z" data-original="#000000" class="active-path" data-old_color="#000000" fill="#202C59"/><path d="M170.645,239.989l-2.645,0v-24h.542c17.684-.041,41.555-.082,47.87,2.553A8,8,0,0,0,232,216a11.78,11.78,0,0,0-3.585-8.483c-7.32-7.308-24.626-7.607-59.9-7.528H168a8,8,0,0,0-16,0h-.51c-35.3-.081-52.583.221-59.905,7.528A11.78,11.78,0,0,0,88,216a8,8,0,0,0,15.588,2.542c6.316-2.636,30.19-2.591,47.87-2.553H152v24l-2.645,0c-45.659-.076-66.194.222-73.926,7.942A11.371,11.371,0,0,0,72,256a8,8,0,0,0,15.423,2.989c7.466-3.086,37.515-3.047,61.907-3l2.67,0v24h-.51c-35.3-.08-52.583.221-59.905,7.528A11.78,11.78,0,0,0,88,296a8,8,0,0,0,15.588,2.542c6.316-2.636,30.19-2.595,47.87-2.553H152V320H128a8,8,0,0,0-8,8,40,40,0,0,0,80,0,8,8,0,0,0-8-8H168V295.99h.542c17.684-.043,41.555-.082,47.87,2.553A8,8,0,0,0,232,296a11.78,11.78,0,0,0-3.585-8.483c-7.32-7.308-24.626-7.6-59.9-7.528H168v-24l2.67,0c24.381-.044,54.441-.087,61.907,3A8,8,0,0,0,248,256a11.371,11.371,0,0,0-3.429-8.069C236.84,240.21,216.333,239.914,170.645,239.989ZM182.629,336a24,24,0,0,1-45.258,0Z" data-original="#000000" class="active-path" data-old_color="#000000" fill="#202C59"/><path d="M24,400H88v64a32,32,0,0,0,64,0V400h16v64a32,32,0,0,0,64,0V400h64a8,8,0,0,0,8-8V168a8,8,0,0,0-8-8H271.419A56.078,56.078,0,0,0,216,112H189.579a72.557,72.557,0,0,0,5.431-7.384C203.022,92.176,208,76.613,208,64a48,48,0,0,0-96,0c0,12.613,4.978,28.176,12.99,40.616A72.557,72.557,0,0,0,130.421,112H104a56.078,56.078,0,0,0-55.419,48H24a8,8,0,0,0-8,8V392A8,8,0,0,0,24,400Zm112,64a16,16,0,0,1-32,0V400h32Zm80,0a16,16,0,0,1-32,0V400h32ZM128,64a32,32,0,0,1,64,0c0,19.828-16.55,48-32,48S128,83.828,128,64Zm-24,64H216A40.069,40.069,0,0,1,255.2,160H64.805A40.069,40.069,0,0,1,104,128ZM32,176H288V384H32Z" data-original="#000000" class="active-path" data-old_color="#000000" fill="#202C59"/><path d="M384,456V72a8,8,0,0,0-8-8H232a8,8,0,0,0,0,16H368V448H280a8,8,0,0,0,0,16h96A8,8,0,0,0,384,456Z" data-original="#000000" class="active-path" data-old_color="#000000" fill="#202C59"/></g> </svg>
