<?xml version="1.0"?>
<svg xmlns="http://www.w3.org/2000/svg" id="Layer_5" enable-background="new 0 0 64 64" height="512px" viewBox="0 0 64 64" width="512px"><g><g><path d="m50 41.526c0-3.109-2.088-5.877-5.077-6.73l-6.745-1.927c-1.226-.351-2.09-1.455-2.162-2.717 1.949-.859 3.569-2.322 4.631-4.151h6.353v3h12c2.206 0 4-1.794 4-4s-1.794-4-4-4v-10.587l.535-.536c.944-.944 1.465-2.2 1.465-3.535v-.343c0-2.757-2.243-5-5-5s-5 2.243-5 5v15h-4v3h-5.461c.237-.752.377-1.544.429-2.36 2.596-1.488 4.032-3.471 4.032-5.64 0-1.578-.761-3.074-2.208-4.36.139-.551.208-1.1.208-1.64 0-4.962-5.383-9-12-9s-12 4.038-12 9c0 .54.069 1.089.208 1.64-1.447 1.286-2.208 2.782-2.208 4.36 0 2.169 1.436 4.152 4.032 5.64.052.816.192 1.608.429 2.36h-5.461v-3h-4v-15c0-2.757-2.243-5-5-5s-5 2.243-5 5v.343c0 1.335.521 2.591 1.465 3.535l.535.536v10.586c-2.206 0-4 1.794-4 4s1.794 4 4 4h12v-3h6.353c1.062 1.829 2.682 3.293 4.631 4.151-.072 1.262-.936 2.366-2.162 2.717l-6.745 1.927c-2.989.854-5.077 3.622-5.077 6.731v5.474h-13v16h62v-16h-13zm3-35.526c0-1.654 1.346-3 3-3s3 1.346 3 3v.343c0 .79-.32 1.563-.879 2.121l-1.121 1.122v11.414h-4zm-4 17h10c1.103 0 2 .897 2 2s-.897 2-2 2h-10zm-43.121-14.536c-.559-.558-.879-1.331-.879-2.121v-.343c0-1.654 1.346-3 3-3s3 1.346 3 3v15h-4v-11.414zm9.121 18.536h-10c-1.103 0-2-.897-2-2s.897-2 2-2h10zm17-16c3.35 0 6.221 2.072 7.411 5h-.411c-3.009 0-5.992-.995-8.4-2.8l-.693-.521-.613.613c-1.274 1.275-2.878 2.131-4.616 2.499 1.238-2.817 4.052-4.791 7.322-4.791zm-12 5c0-1.413 1.068-2.53 1.966-3.219l.575-.441-.241-.684c-.199-.564-.3-1.121-.3-1.656 0-3.86 4.486-7 10-7s10 3.14 10 7c0 .535-.101 1.092-.3 1.656l-.241.684.575.441c.898.689 1.966 1.806 1.966 3.219 0 1.13-.713 2.267-2 3.244v-.244c0-2.652-1.045-5.059-2.735-6.851l1.442-1.442-1.414-1.414-1.541 1.541c-.461-.326-.952-.61-1.466-.855l.643-1.608-1.857-.742-.67 1.675c-.458-.114-.923-.206-1.402-.253v-2.051h-2v2.051c-.479.048-.944.14-1.401.253l-.67-1.675-1.857.743.643 1.607c-.514.245-1.005.529-1.467.855l-1.541-1.541-1.414 1.414 1.442 1.442c-1.69 1.792-2.735 4.199-2.735 6.851v.244c-1.287-.977-2-2.114-2-3.244zm5.765 10h1.235v-2h-2.411c-.377-.927-.589-1.939-.589-3v-2c0-.368.034-.728.082-1.083 2.222-.263 4.306-1.174 6.002-2.632 2.622 1.756 5.757 2.715 8.916 2.715h.931c.041.328.069.661.069 1v2c0 1.061-.212 2.073-.589 3h-2.411v2h1.235c-1.468 1.826-3.715 3-6.235 3s-4.768-1.174-6.235-3zm-9.765 15.526c0-2.221 1.491-4.198 3.626-4.808l6.745-1.927c1.875-.536 3.252-2.125 3.56-4.009.668.141 1.36.218 2.069.218s1.401-.077 2.068-.218c.308 1.883 1.685 3.473 3.56 4.009l6.745 1.927c2.136.61 3.627 2.587 3.627 4.808v5.474h-4v-6h-2v6h-20v-6h-2v6h-4zm45 19.474h-58v-12h58z" data-original="#000000" class="active-path" data-old_color="#000000" fill="#212D5A"/><path d="m35 24h-2c0 .551-.448 1-1 1s-1-.449-1-1h-2c0 1.654 1.346 3 3 3s3-1.346 3-3z" data-original="#000000" class="active-path" data-old_color="#000000" fill="#212D5A"/><path d="m31 19h-2c0 .551-.448 1-1 1s-1-.449-1-1h-2c0 1.654 1.346 3 3 3s3-1.346 3-3z" data-original="#000000" class="active-path" data-old_color="#000000" fill="#212D5A"/><path d="m36 22c1.654 0 3-1.346 3-3h-2c0 .551-.448 1-1 1s-1-.449-1-1h-2c0 1.654 1.346 3 3 3z" data-original="#000000" class="active-path" data-old_color="#000000" fill="#212D5A"/><circle cx="56" cy="6" r="1" data-original="#000000" class="active-path" data-old_color="#000000" fill="#212D5A"/><circle cx="8" cy="6" r="1" data-original="#000000" class="active-path" data-old_color="#000000" fill="#212D5A"/><path d="m9 51h2v2h-2z" data-original="#000000" class="active-path" data-old_color="#000000" fill="#212D5A"/><path d="m13 51h2v2h-2z" data-original="#000000" class="active-path" data-old_color="#000000" fill="#212D5A"/><path d="m5 51h2v2h-2z" data-original="#000000" class="active-path" data-old_color="#000000" fill="#212D5A"/><path d="m49 57h2v2h-2z" data-original="#000000" class="active-path" data-old_color="#000000" fill="#212D5A"/><path d="m57 57h2v2h-2z" data-original="#000000" class="active-path" data-old_color="#000000" fill="#212D5A"/><path d="m53 57h2v2h-2z" data-original="#000000" class="active-path" data-old_color="#000000" fill="#212D5A"/></g></g> </svg>
