<?xml version="1.0"?>
<svg xmlns="http://www.w3.org/2000/svg" height="512px" viewBox="0 0 512 512" width="512px"><g><g id="Outline"><path d="m456 224h16v144h-16z" data-original="#000000" class="active-path" data-old_color="#000000" fill="#202C59"/><path d="m200 232v-24a8 8 0 0 0 -8-8h-32a8 8 0 0 0 -8 8v24h-24a8 8 0 0 0 -8 8v32a8 8 0 0 0 8 8h24v24a8 8 0 0 0 8 8h32a8 8 0 0 0 8-8v-24h24a8 8 0 0 0 8-8v-32a8 8 0 0 0 -8-8zm16 32h-24a8 8 0 0 0 -8 8v24h-16v-24a8 8 0 0 0 -8-8h-24v-16h24a8 8 0 0 0 8-8v-24h16v24a8 8 0 0 0 8 8h24z" data-original="#000000" class="active-path" data-old_color="#000000" fill="#202C59"/><path d="m248 216h16v224h-16z" data-original="#000000" class="active-path" data-old_color="#000000" fill="#202C59"/><path d="m120 328h16v16h-16z" data-original="#000000" class="active-path" data-old_color="#000000" fill="#202C59"/><path d="m152 328h80v16h-80z" data-original="#000000" class="active-path" data-old_color="#000000" fill="#202C59"/><path d="m152 360h80v16h-80z" data-original="#000000" class="active-path" data-old_color="#000000" fill="#202C59"/><path d="m152 392h80v16h-80z" data-original="#000000" class="active-path" data-old_color="#000000" fill="#202C59"/><path d="m152 424h80v16h-80z" data-original="#000000" class="active-path" data-old_color="#000000" fill="#202C59"/><path d="m280 232h16v16h-16z" data-original="#000000" class="active-path" data-old_color="#000000" fill="#202C59"/><path d="m312 232h16v16h-16z" data-original="#000000" class="active-path" data-old_color="#000000" fill="#202C59"/><path d="m384 232h16v16h-16z" data-original="#000000" class="active-path" data-old_color="#000000" fill="#202C59"/><path d="m312 264h88v16h-88z" data-original="#000000" class="active-path" data-old_color="#000000" fill="#202C59"/><path d="m280 296h16v16h-16z" data-original="#000000" class="active-path" data-old_color="#000000" fill="#202C59"/><path d="m312 296h32v16h-32z" data-original="#000000" class="active-path" data-old_color="#000000" fill="#202C59"/><path d="m312 328h24v16h-24z" data-original="#000000" class="active-path" data-old_color="#000000" fill="#202C59"/><path d="m280 360h16v16h-16z" data-original="#000000" class="active-path" data-old_color="#000000" fill="#202C59"/><path d="m312 360h24v16h-24z" data-original="#000000" class="active-path" data-old_color="#000000" fill="#202C59"/><path d="m472 384a23.9 23.9 0 0 0 -16 6.126 23.857 23.857 0 0 0 -24-4.731v-161.395h-16v161.4a23.83 23.83 0 0 0 -16-.024v-41.376a24 24 0 0 0 -48 0v68.687l-5.373-5.373a24.97 24.97 0 0 0 -42.627 17.657v.751a24.99 24.99 0 0 0 6.011 16.251l18.88 22.027h-224.891v-28.686l16.686-16.687a24.835 24.835 0 0 0 6.314-10.627h9v-16h-9.673a25.011 25.011 0 0 0 -22.327-15.975v-200.025h120v-16h-144a32.036 32.036 0 0 0 -32 32v24h16v-24a16.019 16.019 0 0 1 16-16h8v205.03a25.247 25.247 0 0 0 -2.627 2.284l-21.373 21.373v-172.687h-16v108.687l-20.284 20.284a39.735 39.735 0 0 0 -11.716 28.284v106.745h16v-106.745a23.847 23.847 0 0 1 7.029-16.971l8.971-8.971v60.687a8 8 0 0 0 13.657 5.657l35.029-35.03a8.971 8.971 0 0 1 12.687 12.687l-27.03 27.029a8 8 0 0 0 -1 10.095 35.174 35.174 0 0 1 0 39.124 7.993 7.993 0 0 0 -1.343 4.438v8h16v-5.687a51.386 51.386 0 0 0 4.7-10.313h241.91l11.32 13.207a8 8 0 0 0 6.07 2.793h128a8 8 0 0 0 8-8v-80a24.028 24.028 0 0 0 -24-24zm8 96h-116.32l-41.52-48.439a8.978 8.978 0 0 1 -2.16-5.839v-.751a8.971 8.971 0 0 1 15.314-6.344l19.029 19.03a8 8 0 0 0 13.657-5.657v-88a8 8 0 0 1 16 0v64a8 8 0 0 0 16 0 8 8 0 0 1 16 0 8 8 0 0 0 16 0 8 8 0 0 1 16 0 8 8 0 0 0 16 0 8 8 0 0 1 16 0z" data-original="#000000" class="active-path" data-old_color="#000000" fill="#202C59"/><path d="m456 16h-176a40.146 40.146 0 0 0 -34.644 19.994l13.85 8.012a24.1 24.1 0 0 1 20.794-12.006h176a24.027 24.027 0 0 1 24 24v112a24.027 24.027 0 0 1 -24 24h-56a8 8 0 0 0 -5.122 1.854l-34.878 29.065v-22.919a8 8 0 0 0 -8-8h-72a24.027 24.027 0 0 1 -24-24v-112h-16v112a40.045 40.045 0 0 0 40 40h64v32a8 8 0 0 0 13.122 6.146l45.778-38.146h53.1a40.045 40.045 0 0 0 40-40v-112a40.045 40.045 0 0 0 -40-40z" data-original="#000000" class="active-path" data-old_color="#000000" fill="#202C59"/><path d="m272 72v88a8 8 0 0 0 8 8h184v-16h-16v-64h-16v64h-16v-80h-16v80h-16v-48h-16v48h-16v-56h-16v56h-16v-32h-16v32h-16v-80z" data-original="#000000" class="active-path" data-old_color="#000000" fill="#202C59"/></g></g> </svg>
