<?xml version="1.0"?>
<svg xmlns="http://www.w3.org/2000/svg" id="Layer_3" enable-background="new 0 0 64 64" height="512px" viewBox="0 0 64 64" width="512px"><g><path d="m14 17h2v4h-2z" data-original="#000000" class="active-path" data-old_color="#000000" fill="#202C59"/><path d="m24 17h2v4h-2z" data-original="#000000" class="active-path" data-old_color="#000000" fill="#202C59"/><path d="m21 29c1.654 0 3-1.346 3-3v-1h-2v1c0 .551-.449 1-1 1h-2c-.551 0-1-.449-1-1v-1h-2v1c0 1.654 1.346 3 3 3z" data-original="#000000" class="active-path" data-old_color="#000000" fill="#202C59"/><path d="m62 45h-23v-2.171c0-2.091-.814-4.057-2.293-5.536s-3.444-2.293-5.536-2.293h-6.171v-2.764c2.849-1.118 5.118-3.387 6.236-6.236h.764c2.206 0 4-1.794 4-4 0-1.786-1.185-3.285-2.804-3.797 2.45-2.528 3.804-5.845 3.804-9.374 0-2.091-.814-4.057-2.293-5.536s-3.444-2.293-5.536-2.293h-18.342c-2.092 0-4.058.814-5.536 2.293s-2.293 3.444-2.293 5.536c0 3.529 1.354 6.846 3.804 9.374-1.619.512-2.804 2.011-2.804 3.797 0 2.206 1.794 4 4 4h.764c1.118 2.849 3.387 5.118 6.236 6.236v2.764h-6.171c-2.091 0-4.057.814-5.536 2.293s-2.293 3.444-2.293 5.536v19.171c0 .552.448 1 1 1h32 28c.552 0 1-.448 1-1v-16c0-.552-.448-1-1-1zm-36.949 1.316.831 2.492-4.169 5.36 2.929-16.112 3.944 3.944-3.293 3.293c-.268.268-.361.664-.242 1.023zm-10.344-1.023-3.293-3.293 3.943-3.943 2.929 16.112-4.169-5.36.831-2.492c.12-.36.027-.756-.241-1.024zm2.491-8.293h5.604l-2.802 15.41zm16.802-15c0 1.103-.897 2-2 2h-.191c.12-.65.191-1.316.191-2v-2c1.103 0 2 .897 2 2zm-27.293-17.293c1.101-1.101 2.564-1.707 4.122-1.707h18.343c1.557 0 3.021.606 4.122 1.707 1.1 1.101 1.706 2.564 1.706 4.122 0 2.886-1.069 5.601-3 7.72v-2.549c0-.552-.448-1-1-1h-5c-2.757 0-5-2.243-5-5 0-.552-.448-1-1-1s-1 .448-1 1c0 2.757-2.243 5-5 5h-5c-.552 0-1 .448-1 1v2.549c-1.931-2.119-3-4.834-3-7.72 0-1.558.606-3.021 1.707-4.122zm1.293 19.293c-1.103 0-2-.897-2-2s.897-2 2-2v2c0 .684.071 1.35.191 2zm2-2v-7h4c2.543 0 4.774-1.363 6-3.397 1.226 2.034 3.457 3.397 6 3.397h4v7c0 4.962-4.038 9-9 9h-2c-4.962 0-9-4.038-9-9zm7 10.809c.65.12 1.316.191 2 .191h2c.684 0 1.35-.071 2-.191v2.191h-6zm-14 10.02c0-1.557.606-3.021 1.707-4.122s2.564-1.707 4.122-1.707h4.757l-4.293 4.293c-.391.391-.391 1.023 0 1.414l3.563 3.563-.805 2.414c-.105.317-.046.667.159.93l6.79 8.729v2.657h-16zm30 3.171v15h-12v-2.657l6.79-8.729c.205-.264.265-.613.159-.93l-.805-2.414 3.563-3.563c.391-.391.391-1.023 0-1.414l-4.293-4.293h4.757c1.557 0 3.021.606 4.122 1.707s1.707 2.564 1.707 4.122v2.171h-3c-.552 0-1 .448-1 1zm28 15h-26v-14h26z" data-original="#000000" class="active-path" data-old_color="#000000" fill="#202C59"/><path d="m47 57h2v-2h2v-2h-2v-2h-2v2h-2v2h2z" data-original="#000000" class="active-path" data-old_color="#000000" fill="#202C59"/><path d="m47 39c0 .912.355 1.77 1 2.414l.586.586c.645.645 1.502 1 2.414 1s1.77-.355 2.414-1l4.586-4.586c.645-.645 1-1.502 1-2.414s-.355-1.77-1-2.414l-.586-.586c-1.289-1.29-3.539-1.29-4.828 0l-4.586 4.586c-.645.644-1 1.502-1 2.414zm7-5.586c.263-.263.628-.414 1-.414s.737.151 1 .414l.586.586c.263.263.414.628.414 1s-.151.737-.414 1l-1.586 1.586-2.586-2.586zm-4.586 4.586 1.586-1.586 2.586 2.586-1.586 1.586c-.526.526-1.474.526-2 0l-.586-.586c-.263-.263-.414-.628-.414-1s.151-.737.414-1z" data-original="#000000" class="active-path" data-old_color="#000000" fill="#202C59"/><path d="m47.414 16c-1.289-1.29-3.539-1.29-4.828 0l-.586.586c-.645.645-1 1.502-1 2.414s.355 1.77 1 2.414l4.586 4.586c.645.645 1.502 1 2.414 1s1.77-.355 2.414-1l.586-.586c.645-.645 1-1.502 1-2.414s-.355-1.77-1-2.414zm-4.414 3c0-.372.151-.737.414-1l.586-.586c.263-.263.628-.414 1-.414s.737.151 1 .414l1.586 1.586-2.586 2.586-1.586-1.586c-.263-.263-.414-.628-.414-1zm7.586 5-.586.586c-.526.526-1.474.526-2 0l-1.586-1.586 2.586-2.586 1.586 1.586c.263.263.414.628.414 1s-.151.737-.414 1z" data-original="#000000" class="active-path" data-old_color="#000000" fill="#202C59"/></g> </svg>
