<?xml version="1.0"?>
<svg xmlns="http://www.w3.org/2000/svg" id="Capa_1" enable-background="new 0 0 512.079 512.079" height="512px" viewBox="0 0 512.079 512.079" width="512px"><g><g><path d="m82.851 207.326c-2.929 2.929-2.929 7.678 0 10.606 2.93 2.929 7.678 2.929 10.607 0 9.048-9.048 21.077-14.031 33.873-14.031 4.143 0 7.5-3.358 7.5-7.5s-3.357-7.5-7.5-7.5c-16.802.001-32.598 6.543-44.48 18.425zm346.904 130.769c-10.94 6.615-22.635 11.368-34.912 14.222 6.743-14.108 10.263-29.551 10.263-45.427 0-4.142-3.357-7.5-7.5-7.5s-7.5 3.358-7.5 7.5c0 58.058-54.033 101.241-110.709 88.359-9.337-2.122-15.857-10.257-15.857-19.785v-40.864c0-4.142-3.357-7.5-7.5-7.5s-7.5 3.358-7.5 7.5v40.864c0 9.527-6.52 17.663-15.857 19.785-56.507 12.843-110.709-30.106-110.709-88.359 0-4.142-3.357-7.5-7.5-7.5s-7.5 3.358-7.5 7.5c0 15.872 3.518 31.311 10.257 45.416-54.474-12.731-93.413-61.473-93.413-117.876 0-67.691 54.987-121.058 121.058-121.058 4.143 0 7.5-3.358 7.5-7.5s-3.357-7.5-7.5-7.5c-17.638 0-34.658 3.302-50.762 9.818 2.341-20.709 10.789-40.372 24.417-56.321 2.69-3.15 2.319-7.883-.83-10.574-3.15-2.692-7.884-2.318-10.574.83-17.581 20.575-27.659 46.547-28.625 73.549-43.103 24.095-69.685 69.187-69.685 118.755 0 68.61 51.088 126.307 118.639 134.95 10.857 14.771 25.196 26.252 41.453 33.644 8.973 20.231 26.429 36.112 47.979 44.897l5.133 39.824c1.788 13.874 13.686 24.336 27.674 24.336h12.691c13.988 0 25.886-10.462 27.674-24.336l5.133-39.824c21.55-8.785 39.006-24.665 47.979-44.896 16.256-7.391 30.596-18.872 41.453-33.643 18.822-2.397 36.601-8.597 52.893-18.449 3.545-2.144 4.681-6.754 2.537-10.299-2.145-3.546-6.756-4.68-10.3-2.538zm-154.573 147.731c-.827 6.415-6.328 11.253-12.797 11.253h-12.691c-6.469 0-11.97-4.838-12.797-11.253l-4.246-32.945c15.401 3.52 31.359 3.524 46.777 0zm-84.674-75.668c15.4 3.294 30.972 3.02 45.498-.281 8.21-1.865 15.167-6.416 20.033-12.607 4.866 6.191 11.823 10.742 20.033 12.607 14.555 3.308 30.126 3.569 45.498.282-31.063 40.457-100.01 40.44-131.062-.001zm228.113-192.226c2.93 2.929 7.678 2.929 10.607 0s2.929-7.678 0-10.606c-11.882-11.881-27.678-18.424-44.48-18.424-4.143 0-7.5 3.358-7.5 7.5s3.357 7.5 7.5 7.5c12.796 0 24.825 4.982 33.873 14.03zm-245.368 39.496c0 4.142 3.357 7.5 7.5 7.5s7.5-3.358 7.5-7.5c0-3.455 2.811-6.265 6.265-6.265s6.265 2.811 6.265 6.265c0 4.142 3.357 7.5 7.5 7.5s7.5-3.358 7.5-7.5c0-11.726-9.539-21.265-21.265-21.265s-21.265 9.54-21.265 21.265zm260.327-141.754c-2.788-79.04-80.77-134.213-156.495-109.866-8.749 2.813-16.027 8.308-21.045 15.403-5.018-7.095-12.296-12.589-21.045-15.403-11.823-3.801-24.168-5.729-36.691-5.729-21.99 0-43.496 6.009-62.194 17.376-3.539 2.152-4.664 6.766-2.512 10.305 2.15 3.54 6.768 4.662 10.305 2.512 26.619-16.184 58.452-19.205 86.501-10.184 10.849 3.488 18.137 13.449 18.137 24.787 0 4.142 3.357 7.5 7.5 7.5s7.5-3.358 7.5-7.5c0-11.338 7.288-21.299 18.137-24.787 63.195-20.323 128.986 22.74 136.315 88.112-16.111-6.523-33.139-9.829-50.787-9.829-4.142 0-7.5 3.358-7.5 7.5s3.358 7.5 7.5 7.5c66.108 0 121.058 53.399 121.058 121.058 0 30.642-11.472 59.879-32.303 82.325-2.818 3.036-2.641 7.782.396 10.6 3.035 2.817 7.78 2.641 10.599-.395 23.414-25.229 36.309-58.09 36.309-92.529-.003-49.569-26.584-94.66-69.685-118.756zm-168.592 152.915c-2.261 2.593-5.521 4.08-8.948 4.08s-6.688-1.487-8.948-4.08c-2.72-3.122-7.459-3.446-10.581-.726-3.123 2.722-3.447 7.46-.726 10.582 5.109 5.862 12.492 9.224 20.255 9.224s15.145-3.362 20.255-9.224c2.722-3.122 2.397-7.86-.726-10.582s-7.86-2.397-10.581.726zm31.309-11.161c0 4.142 3.357 7.5 7.5 7.5s7.5-3.358 7.5-7.5c0-3.455 2.811-6.265 6.265-6.265s6.265 2.811 6.265 6.265c0 4.142 3.357 7.5 7.5 7.5s7.5-3.358 7.5-7.5c0-11.726-9.539-21.265-21.265-21.265-11.725 0-21.265 9.54-21.265 21.265zm-23.676-187.743h-33.162c-7.436 0-13.485 6.049-13.485 13.485v31.647h-31.646c-7.436 0-13.485 6.05-13.485 13.486v33.161c0 7.436 6.05 13.485 13.485 13.485h31.646v31.647c0 7.436 6.05 13.485 13.485 13.485h33.162c7.436 0 13.485-6.049 13.485-13.485v-31.647h31.647c7.435 0 13.485-6.049 13.485-13.485v-33.161c0-7.436-6.05-13.486-13.485-13.486h-31.647v-31.647c0-7.436-6.05-13.485-13.485-13.485zm43.617 60.132v30.132h-31.646c-7.436 0-13.485 6.049-13.485 13.485v31.647h-30.133v-31.647c0-7.436-6.05-13.485-13.485-13.485h-31.646v-30.132h31.646c7.436 0 13.485-6.049 13.485-13.485v-31.647h30.133v31.647c0 7.436 6.05 13.485 13.485 13.485z" data-original="#000000" class="active-path" data-old_color="#000000" fill="#202C59"/></g></g> </svg>
